<?xml version="1.0" encoding="UTF-8"?>
<svg version="1.1" xmlns="http://www.w3.org/2000/svg" width="1024" height="1024">
<path d="M0 0 C337.92 0 675.84 0 1024 0 C1024 337.92 1024 675.84 1024 1024 C686.08 1024 348.16 1024 0 1024 C0 686.08 0 348.16 0 0 Z " fill="#0F1318" transform="translate(0,0)"/>
<path d="M0 0 C1.37313103 0.49251503 1.37313103 0.49251503 2.77400208 0.99497986 C4.76282302 1.70933887 6.75012131 2.42794806 8.73605347 3.15029907 C14.13110049 5.11242595 19.53711693 7.04397739 24.94140625 8.98046875 C26.63291557 9.58809303 26.63291557 9.58809303 28.3585968 10.20799255 C39.65995414 14.26103267 51.00653198 18.17930219 62.35964966 22.08450317 C78.41938982 27.60889082 94.44494645 33.1990823 110.38116455 39.07055664 C123.89730281 44.04439272 137.54914951 48.57276388 151.22497559 53.08380127 C156.89398213 54.95695774 162.54339745 56.88232201 168.1796875 58.8515625 C168.92323486 59.10977783 169.66678223 59.36799316 170.43286133 59.6340332 C175.94683746 61.5733002 181.30113893 63.73764307 186.7421875 65.9140625 C186.7421875 85.0540625 186.7421875 104.1940625 186.7421875 123.9140625 C181.2971875 125.8940625 181.2971875 125.8940625 175.7421875 127.9140625 C165.58511702 134.48628458 159.37432456 142.2822186 155.7421875 153.9140625 C155.4121875 156.2240625 155.0821875 158.5340625 154.7421875 160.9140625 C119.7621875 160.9140625 84.7821875 160.9140625 48.7421875 160.9140625 C49.0721875 166.5240625 49.4021875 172.1340625 49.7421875 177.9140625 C63.63383209 178.03847252 77.52437206 178.10323681 91.41660786 178.09284496 C97.86822535 178.08987202 104.31844766 178.10707857 110.76977539 178.17114258 C117.00141396 178.2322703 123.23103595 178.23942276 129.46288109 178.20989418 C131.83465001 178.20799752 134.20651724 178.22521926 136.57799721 178.26228905 C150.86413848 179.00341344 150.86413848 179.00341344 163.2801466 173.14188862 C167.62514746 168.59915278 169.71945417 164.47237941 170.37890625 158.26171875 C171.36150121 151.91183092 176.05234108 147.01529348 180.9375 143.16796875 C187.30098414 138.74658691 193.21789726 138.14317562 200.7421875 138.9140625 C208.15252845 140.34957357 212.71680905 144.77313153 217.06640625 150.7265625 C220.47741558 156.47142031 220.47111787 162.39868486 219.7421875 168.9140625 C217.68123832 175.89839029 213.3927216 181.55875575 207.1171875 185.2890625 C201.09108592 188.19051882 195.38409064 188.62313054 188.7421875 187.9140625 C186.2503987 186.98152942 184.0222496 185.91349989 181.71484375 184.59375 C179.76778006 183.69224281 179.76778006 183.69224281 177.94189453 184.56298828 C175.07636293 186.32301624 172.94701066 188.46786956 170.57421875 190.8515625 C169.85379646 191.57267212 169.85379646 191.57267212 169.11882019 192.30834961 C168.1088168 193.32136401 167.10123477 194.3367977 166.09594727 195.35449219 C164.55472705 196.91402248 163.00560038 198.4653482 161.45507812 200.015625 C156.54058142 204.54775483 156.54058142 204.54775483 152.7421875 209.9140625 C124.6921875 210.2440625 96.6421875 210.5740625 67.7421875 210.9140625 C70.0521875 215.2040625 72.3621875 219.4940625 74.7421875 223.9140625 C76.55383644 223.90287636 76.55383644 223.90287636 78.40208435 223.89146423 C89.80450225 223.82694427 101.20614329 223.8099013 112.60871792 223.83890438 C118.47055135 223.85230021 124.33139187 223.84918213 130.19311523 223.80786133 C135.8540788 223.76857098 141.51347923 223.77326418 147.17445564 223.80798531 C149.33012632 223.8135685 151.48589806 223.80351257 153.64141655 223.77729607 C170.66495499 223.58551485 170.66495499 223.58551485 175.92921448 226.95240784 C178.29492188 229.4140625 178.29492188 229.4140625 180.02355957 231.87670898 C182.25719217 234.52457659 183.83124867 234.6719185 187.21484375 235.01171875 C189.07787516 235.04440351 190.94220306 235.03229446 192.8046875 234.9765625 C194.24618164 234.98719727 194.24618164 234.98719727 195.71679688 234.99804688 C198.06169282 235.00971302 200.39844619 234.98106317 202.7421875 234.9140625 C203.00515625 234.15351563 203.268125 233.39296875 203.5390625 232.609375 C205.74278796 227.67245756 210.09552297 225.06289822 214.4296875 222.0390625 C221.10504393 219.77196032 228.14186044 219.91208849 234.6796875 222.6015625 C242.01614607 226.39537081 247.1448125 233.12193751 249.7421875 240.9140625 C250.77223147 249.96494068 248.64694041 258.62089485 242.9921875 265.8515625 C237.88259289 271.25943294 231.33254718 273.60979473 224.0546875 274.2265625 C216.43381916 274.11303001 210.05433984 270.09973502 204.7421875 264.9140625 C201.7421875 260.6140625 201.7421875 260.6140625 201.7421875 257.9140625 C166.4321875 257.9140625 131.1221875 257.9140625 94.7421875 257.9140625 C97.0521875 262.2040625 99.3621875 266.4940625 101.7421875 270.9140625 C101.7421875 271.5740625 101.7421875 272.2340625 101.7421875 272.9140625 C102.3787326 272.87409149 103.01527771 272.83412048 103.67111206 272.79293823 C110.38709379 272.39004659 117.09958592 272.12147503 123.82470703 271.92529297 C126.32222099 271.83557926 128.81881149 271.7133359 131.31298828 271.55615234 C153.12504095 270.21750651 153.12504095 270.21750651 161.34082031 276.82519531 C165.29267347 280.53890475 168.77096988 284.55296499 172.09527588 288.83209229 C174.13785649 291.41425392 176.3556853 293.6516837 178.7421875 295.9140625 C179.25265625 295.6253125 179.763125 295.3365625 180.2890625 295.0390625 C187.33103318 291.44316258 194.31546208 290.43740252 202.0390625 292.5390625 C208.15951743 295.19600418 212.29769537 300.21053429 215.91015625 305.68359375 C218.20227365 311.82819016 217.7880973 320.5195249 215.8671875 326.75390625 C212.25178089 333.71118542 206.48046624 339.03027047 198.96875 341.4375 C191.28311649 343.08249524 184.85558711 342.39087754 177.97265625 338.5390625 C172.90503717 334.84706681 169.67273119 329.83852914 167.7421875 323.9140625 C167.60464125 320.98109101 167.61758834 318.07988841 167.671875 315.14453125 C166.46441646 310.94886648 164.94025205 308.52611068 161.74658203 305.54418945 C154.86400266 301.80983365 146.37387775 302.82819065 138.7421875 302.9140625 C136.89972012 302.90596303 135.0572648 302.89427884 133.21484375 302.87890625 C128.72303445 302.84918924 124.23383656 302.86833304 119.7421875 302.9140625 C120.391875 304.04585938 121.0415625 305.17765625 121.7109375 306.34375 C122.55491151 307.82539326 123.39864931 309.30717108 124.2421875 310.7890625 C124.67144531 311.53542969 125.10070312 312.28179687 125.54296875 313.05078125 C125.94902344 313.76621094 126.35507812 314.48164063 126.7734375 315.21875 C127.15048828 315.87858887 127.52753906 316.53842773 127.91601562 317.21826172 C128.7421875 318.9140625 128.7421875 318.9140625 128.7421875 320.9140625 C136.3321875 320.9140625 143.9221875 320.9140625 151.7421875 320.9140625 C152.4434375 323.2240625 153.1446875 325.5340625 153.8671875 327.9140625 C155.64030922 333.52412312 157.57606154 337.87275793 161.703125 342.203125 C162.7421875 343.9140625 162.7421875 343.9140625 162.45751953 346.25708008 C161.73389148 348.94487668 160.82183341 350.79610636 159.3359375 353.13671875 C158.84383789 353.91668213 158.35173828 354.69664551 157.84472656 355.50024414 C157.31588867 356.3174292 156.78705078 357.13461426 156.2421875 357.9765625 C155.70045898 358.82275146 155.15873047 359.66894043 154.60058594 360.54077148 C150.26965077 367.24094538 145.69132892 373.65321255 140.7421875 379.9140625 C139.74445313 381.19990234 139.74445313 381.19990234 138.7265625 382.51171875 C134.67830807 387.66766484 130.42762162 392.59289174 126.00390625 397.4296875 C124.54977635 399.02697008 123.11317922 400.64048889 121.69921875 402.2734375 C111.45766008 414.03297579 99.80005876 424.24597985 87.39355469 433.64794922 C85.82683864 434.84915996 84.28747849 436.08580592 82.75 437.32421875 C57.9040753 457.16869108 28.46284148 472.80624207 -1.0078125 484.6015625 C-2.19890625 485.07980469 -3.39 485.55804687 -4.6171875 486.05078125 C-11.9441312 487.78817884 -18.43522733 485.87846593 -25.2578125 483.1015625 C-26.01344482 482.79951904 -26.76907715 482.49747559 -27.54760742 482.1862793 C-64.79902372 466.94215165 -98.46749836 445.64610848 -128.74511719 419.22705078 C-130.04415325 418.09951431 -131.35673865 416.98762153 -132.671875 415.87890625 C-136.66016029 412.49887296 -140.10678418 408.92641948 -143.484375 404.9375 C-145.28243167 402.88597278 -147.1735551 400.99886709 -149.1328125 399.1015625 C-153.91794429 394.3622653 -158.1099945 389.21085169 -162.2578125 383.9140625 C-162.70640625 383.34719727 -163.155 382.78033203 -163.6171875 382.19628906 C-186.17846338 353.54532814 -202.54935447 320.94407054 -209.2578125 284.9140625 C-209.42498213 284.0785703 -209.59215176 283.2430781 -209.76438713 282.38226795 C-211.60582155 272.09382719 -211.52572506 261.94832448 -211.48486328 251.52807617 C-211.48429816 249.49662786 -211.48461769 247.46517915 -211.48574829 245.43373108 C-211.48631888 239.9553004 -211.47461241 234.47695845 -211.46060038 228.99854827 C-211.44804376 223.25972307 -211.44691864 217.52089553 -211.44454956 211.78205872 C-211.43834923 200.9310198 -211.42195808 190.08002148 -211.40185058 179.22900039 C-211.37944642 166.8686012 -211.36848681 154.50820001 -211.35845971 142.14778554 C-211.33759051 116.73652207 -211.30244281 91.32529457 -211.2578125 65.9140625 C-205.90908846 63.75049178 -200.5668038 61.60877903 -195.11694336 59.71020508 C-193.46071457 59.13136566 -193.46071457 59.13136566 -191.77102661 58.54083252 C-190.01458328 57.93087433 -190.01458328 57.93087433 -188.22265625 57.30859375 C-186.9577686 56.86751993 -185.69294901 56.42625091 -184.42819214 55.98480225 C-181.05067566 54.80657572 -177.67217589 53.63119379 -174.29346085 52.45640945 C-170.76302829 51.22833831 -167.23351387 49.99763356 -163.70385742 48.76733398 C-144.22367135 41.97907891 -124.73687724 35.20967361 -105.24389648 28.45825195 C-94.07129802 24.58833608 -82.9062816 20.69751505 -71.74801636 16.78646851 C-67.51502299 15.30350203 -63.280875 13.82383941 -59.046875 12.34375 C-56.50730103 11.4556327 -53.96775845 10.56742569 -51.42822266 9.67919922 C-49.72059515 9.08203733 -48.01291216 8.48503406 -46.30517578 7.88818359 C-44.59753172 7.29133398 -42.8899907 6.69418944 -41.18255615 6.09674072 C-39.52656824 5.5176381 -37.87020376 4.93961102 -36.21343994 4.36273193 C-32.50412173 3.06796189 -28.8053135 1.75518774 -25.12792969 0.37207031 C-23.89977539 -0.08586914 -22.67162109 -0.54380859 -21.40625 -1.015625 C-19.827229 -1.61866455 -19.827229 -1.61866455 -18.21630859 -2.23388672 C-11.41316946 -4.19319977 -6.39625538 -2.35740855 0 0 Z " fill="#1F93D7" transform="translate(524.2578125,186.0859375)"/>
<path d="M0 0 C1.57915695 -0.00810448 1.57915695 -0.00810448 3.19021606 -0.01637268 C6.66298722 -0.02885824 10.13492903 -0.01236807 13.60766602 0.00561523 C16.02612857 0.00546023 18.44459139 0.00397105 20.86305237 0.00120544 C25.92948398 -0.00017852 30.99563251 0.01237869 36.06201172 0.03515625 C42.54965983 0.06352522 49.03683706 0.06080742 55.52451992 0.04806614 C60.51829535 0.04110371 65.51196237 0.04890504 70.50572395 0.06132317 C72.89747769 0.06583322 75.28924308 0.06617837 77.68099785 0.06225777 C81.02715694 0.05934051 84.37267233 0.07587867 87.71875 0.09765625 C88.7033873 0.0931546 89.6880246 0.08865295 90.70249939 0.08401489 C97.04648744 0.15245542 102.06640488 0.85247252 107.20141602 4.90405273 C110.75218103 9.60253977 111.10716931 13.88092465 110.84594727 19.69311523 C110.09180809 24.71372698 107.7391295 27.29327801 104.11157227 30.62670898 C95.69073893 36.50170898 95.69073893 36.50170898 92.42407227 36.50170898 C91.25168493 40.21575685 91.29034166 43.74180362 91.27880859 47.6184082 C91.27544998 48.328022 91.27209137 49.0376358 91.26863098 49.76875305 C91.25913604 52.11465207 91.25717777 54.46047944 91.25610352 56.80639648 C91.25288696 58.44865955 91.24952259 60.09092234 91.24601746 61.73318481 C91.24002772 65.18142356 91.2381771 68.62963727 91.23876953 72.07788086 C91.23887047 76.4595754 91.2252892 80.84110537 91.20799732 85.22276115 C91.19677416 88.62035837 91.19485355 92.01791732 91.19537926 95.41553116 C91.19421188 97.02837815 91.1898614 98.64122654 91.18204689 100.25405502 C91.10622897 117.53711505 92.82066006 131.78248629 101.67407227 146.87670898 C102.19710937 147.78026123 102.72014648 148.68381348 103.2590332 149.61474609 C104.38840699 151.56498584 105.52032758 153.51375254 106.65454102 155.46118164 C109.67630477 160.65337891 112.67302062 165.86002309 115.67407227 171.06420898 C116.30087891 172.14943848 116.92768555 173.23466797 117.57348633 174.3527832 C122.2136993 182.38916217 126.82505937 190.44171989 131.42407227 198.50170898 C137.17536233 208.58107614 142.95826974 218.64170098 148.76635742 228.68847656 C152.06117297 234.39211049 155.34283718 240.10286939 158.60375977 245.82592773 C158.95225479 246.43732605 159.30074982 247.04872437 159.6598053 247.6786499 C161.04939689 250.11695679 162.43882929 252.55534843 163.82553101 254.99530029 C167.32163587 261.14610716 170.84650617 267.26310957 174.58496094 273.27001953 C182.27644744 285.67064595 184.7912204 298.02313324 181.54516602 312.39233398 C179.09422591 319.86648796 175.74661849 325.73355424 170.42407227 331.50170898 C169.64032227 332.38858398 168.85657227 333.27545898 168.04907227 334.18920898 C152.32462471 348.04169849 134.34372539 347.65069167 114.46923828 347.6628418 C112.68562724 347.66747995 110.90201716 347.67250592 109.1184082 347.67788696 C104.30641627 347.69091106 99.49443823 347.69743541 94.68243146 347.70189762 C91.66909875 347.70484266 88.65576972 347.70894991 85.64243889 347.71340179 C76.19338837 347.72704613 66.7443464 347.73672952 57.29528672 347.74060369 C46.42515499 347.74508662 35.55514887 347.76265843 24.68505532 347.79160428 C16.25410413 347.81326885 7.82318818 347.8233104 -0.60779053 347.8246448 C-5.63103181 347.82568877 -10.65415452 347.8315101 -15.67736626 347.84946442 C-20.4028349 347.86602957 -25.12809683 347.86805993 -29.85358429 347.85932541 C-31.57841359 347.85855972 -33.30325441 347.86283524 -35.02805519 347.87278366 C-52.88782054 347.96968297 -68.09742264 345.3551763 -81.57592773 332.62280273 C-90.53859471 323.11747428 -93.88881717 312.44338724 -94.13842773 299.56420898 C-94.16533691 298.766521 -94.19224609 297.96883301 -94.2199707 297.14697266 C-94.14467941 285.09672337 -87.92339855 274.75110144 -81.70092773 264.81420898 C-80.35908036 262.62533184 -79.01929931 260.43518687 -77.68139648 258.24389648 C-76.99996582 257.13111328 -76.31853516 256.01833008 -75.61645508 254.87182617 C-72.32972998 249.44349962 -69.16952159 243.94419677 -66.01342773 238.43920898 C-64.75967258 236.25683051 -63.50576699 234.07453845 -62.25170898 231.89233398 C-61.6389209 230.82563477 -61.02613281 229.75893555 -60.39477539 228.65991211 C-52.78391213 215.44459303 -45.04816378 202.30095255 -37.33609009 189.14453125 C-36.26481344 187.31657347 -35.1941334 185.48826728 -34.12353516 183.65991211 C-30.809302 178.0020544 -27.4886305 172.34828964 -24.14408875 166.70828247 C-8.1421482 142.59133682 -8.1421482 142.59133682 -1.38305664 115.41601562 C-1.37487915 114.60416306 -1.36670166 113.79231049 -1.35827637 112.95585632 C-1.33350233 110.27453337 -1.31693034 107.59326292 -1.30249023 104.91186523 C-1.29450472 103.53662595 -1.29450472 103.53662595 -1.28635788 102.13360405 C-1.25966601 97.28439038 -1.24027512 92.43520215 -1.22583008 87.5859375 C-1.21247022 83.57301138 -1.18457456 79.56059127 -1.14379883 75.54785156 C-1.09453793 70.69970406 -1.06971789 65.85201679 -1.062603 61.00362968 C-1.05588457 59.15722056 -1.0406471 57.31082195 -1.01671219 55.46455574 C-0.98512443 52.88142259 -0.98501326 50.30007211 -0.99243164 47.71679688 C-0.97602631 46.9555954 -0.95962097 46.19439392 -0.94271851 45.41012573 C-0.98975602 41.40735262 -1.41373291 39.69986932 -3.98348999 36.56028748 C-6.20191498 34.7987015 -7.97783155 33.61706651 -10.57592773 32.56420898 C-14.8183811 30.59134787 -16.89369106 28.32186425 -19.57592773 24.50170898 C-21.50954644 18.70085288 -21.56951792 12.60353438 -18.95092773 7.06420898 C-13.01601654 0.66075217 -8.34602288 -0.08177991 0 0 Z " fill="#101418" transform="translate(465.575927734375,245.498291015625)"/>
<path d="M0 0 C1.15043541 0.00212242 1.15043541 0.00212242 2.32411194 0.00428772 C4.74866815 0.00983859 7.17312844 0.02238162 9.59765625 0.03515625 C11.25195178 0.04017761 12.90624878 0.0447394 14.56054688 0.04882812 C18.59378637 0.05979187 22.62695511 0.07702201 26.66015625 0.09765625 C27.34765625 1.30078125 28.03515625 2.50390625 28.72265625 3.70703125 C29.41089478 4.91141846 29.41089478 4.91141846 30.11303711 6.14013672 C31.16600399 7.9828703 32.21889833 9.82564534 33.27172852 11.66845703 C36.69994081 17.66868769 40.130207 23.66773685 43.56260681 29.66557312 C45.25548629 32.62434771 46.94690314 35.58394382 48.63549805 38.54516602 C49.13931252 39.42865974 49.13931252 39.42865974 49.65330505 40.33000183 C50.32813 41.51341404 51.00290442 42.69685506 51.67762756 43.88032532 C53.92641022 47.82139945 56.1925779 51.75211687 58.46484375 55.6796875 C59.63425695 57.71476195 60.80353494 59.7499141 61.97265625 61.78515625 C62.50560303 62.6982959 63.0385498 63.61143555 63.58764648 64.55224609 C67.76853428 71.86215746 71.75916242 79.46260778 70.66015625 88.09765625 C68.53366535 95.10089963 63.59180735 100.00884821 57.66015625 104.09765625 C53.03583701 105.98268638 48.84096718 106.38875471 43.90667725 106.37181091 C43.14498206 106.37704759 42.38328688 106.38228427 41.59851003 106.38767964 C39.05617952 106.40263431 36.51405109 106.40338379 33.97167969 106.40405273 C32.14467532 106.41167731 30.31767415 106.42010532 28.49067688 106.42927551 C23.53390103 106.45119884 18.57718686 106.46001659 13.620368 106.46510196 C10.5209855 106.46874829 7.42161909 106.47498982 4.32224274 106.48210335 C-6.49790657 106.50659096 -17.31800799 106.51964812 -28.13818359 106.52319336 C-38.21181477 106.5268274 -48.28514104 106.55671519 -58.35867906 106.59859794 C-67.01706935 106.63333032 -75.67535874 106.64874232 -84.3338182 106.64943939 C-89.50077214 106.65023124 -94.66741543 106.65892754 -99.83429718 106.68743706 C-104.69686004 106.71366792 -109.55885579 106.71579487 -114.42145729 106.69978142 C-116.20076296 106.69797089 -117.98010162 106.70462177 -119.75933647 106.72060013 C-130.03650881 106.80722803 -139.39094836 106.80591585 -147.26091385 99.2542944 C-152.36752489 93.69421866 -154.01083645 89.03136625 -153.8203125 81.46484375 C-152.8930521 74.96648226 -149.5910422 69.6785312 -146.33984375 64.09765625 C-145.8514502 63.24655273 -145.36305664 62.39544922 -144.85986328 61.51855469 C-141.3706154 55.441739 -137.82633538 49.39854371 -134.26416016 43.36425781 C-130.97845148 37.7866402 -127.72334331 32.19119734 -124.46484375 26.59765625 C-123.28008346 24.56632719 -122.09520048 22.53506968 -120.91015625 20.50390625 C-120.41273926 19.65119141 -119.91532227 18.79847656 -119.40283203 17.91992188 C-119.0520459 17.31857422 -118.70125977 16.71722656 -118.33984375 16.09765625 C-113.41326275 16.60226746 -108.57868817 17.21401937 -103.71484375 18.16015625 C-80.32744452 21.78355613 -59.92333641 17.36031275 -38.41796875 8.48046875 C-25.80387746 3.29169361 -13.70262608 -0.09695366 0 0 Z " fill="#1E8BD3" transform="translate(551.33984375,461.90234375)"/>
<path d="M0 0 C-0.185625 0.78375 -0.37125 1.5675 -0.5625 2.375 C-1.25962266 4.97089775 -1.25962266 4.97089775 0 7 C-2.40983607 11.70491803 -2.40983607 11.70491803 -5 13 C-4.67 13.99 -4.34 14.98 -4 16 C-4.4375 18.6875 -4.4375 18.6875 -5 21 C-5.66 21 -6.32 21 -7 21 C-6.67 39.81 -6.34 58.62 -6 78 C-3.525 77.505 -3.525 77.505 -1 77 C-0.34 75.02 0.32 73.04 1 71 C2.70840281 72.63412443 3.93453047 73.86906094 5 76 C5.33 72.37 5.66 68.74 6 65 C41.31 65 76.62 65 113 65 C113 65.33 113 65.66 113 66 C78.02 66 43.04 66 7 66 C7.495 74.415 7.495 74.415 8 83 C21.89164459 83.12441002 35.78218456 83.18917431 49.67442036 83.17878246 C56.12603785 83.17580952 62.57626016 83.19301607 69.02758789 83.25708008 C75.25922646 83.3182078 81.48884845 83.32536026 87.72069359 83.29583168 C90.09246251 83.29393502 92.46432974 83.31115676 94.83580971 83.34822655 C109.12195098 84.08935094 109.12195098 84.08935094 121.5379591 78.22782612 C125.88295996 73.68509028 127.97726667 69.55831691 128.63671875 63.34765625 C129.61931371 56.99776842 134.31015358 52.10123098 139.1953125 48.25390625 C145.55879664 43.83252441 151.47570976 43.22911312 159 44 C166.41034095 45.43551107 170.97462155 49.85906903 175.32421875 55.8125 C178.73522808 61.55735781 178.72893037 67.48462236 178 74 C175.93905082 80.98432779 171.6505341 86.64469325 165.375 90.375 C159.34889842 93.27645632 153.64190314 93.70906804 147 93 C144.5082112 92.06746692 142.2800621 90.99943739 139.97265625 89.6796875 C138.02559256 88.77818031 138.02559256 88.77818031 136.19970703 89.64892578 C133.33417543 91.40895374 131.20482316 93.55380706 128.83203125 95.9375 C128.11160896 96.65860962 128.11160896 96.65860962 127.37663269 97.39428711 C126.3666293 98.40730151 125.35904727 99.4227352 124.35375977 100.44042969 C122.81253955 101.99995998 121.26341288 103.5512857 119.71289062 105.1015625 C114.79839392 109.63369233 114.79839392 109.63369233 111 115 C82.95 115.33 54.9 115.66 26 116 C29.465 122.435 29.465 122.435 33 129 C34.81164894 128.98881386 34.81164894 128.98881386 36.65989685 128.97740173 C48.06231475 128.91288177 59.46395579 128.8958388 70.86653042 128.92484188 C76.72836385 128.93823771 82.58920437 128.93511963 88.45092773 128.89379883 C94.1118913 128.85450848 99.77129173 128.85920168 105.43226814 128.89392281 C107.58793882 128.899506 109.74371056 128.88945007 111.89922905 128.86323357 C128.92276749 128.67145235 128.92276749 128.67145235 134.18702698 132.03834534 C136.55273438 134.5 136.55273438 134.5 138.28137207 136.96264648 C140.51500467 139.61051409 142.08906117 139.757856 145.47265625 140.09765625 C147.33568766 140.13034101 149.20001556 140.11823196 151.0625 140.0625 C152.50399414 140.07313477 152.50399414 140.07313477 153.97460938 140.08398438 C156.31950532 140.09565052 158.65625869 140.06700067 161 140 C161.26296875 139.23945313 161.5259375 138.47890625 161.796875 137.6953125 C164.00060046 132.75839506 168.35333547 130.14883572 172.6875 127.125 C179.36285643 124.85789782 186.39967294 124.99802599 192.9375 127.6875 C200.27395857 131.48130831 205.402625 138.20787501 208 146 C209.03004397 155.05087818 206.90475291 163.70683235 201.25 170.9375 C196.14040539 176.34537044 189.59035968 178.69573223 182.3125 179.3125 C174.69163166 179.19896751 168.31215234 175.18567252 163 170 C160 165.7 160 165.7 160 163 C124.69 163 89.38 163 53 163 C55.31 167.29 57.62 171.58 60 176 C60 176.66 60 177.32 60 178 C60.6365451 177.96002899 61.27309021 177.92005798 61.92892456 177.87887573 C68.64490629 177.47598409 75.35739842 177.20741253 82.08251953 177.01123047 C84.58003349 176.92151676 87.07662399 176.7992734 89.57080078 176.64208984 C111.38285345 175.30344401 111.38285345 175.30344401 119.59863281 181.91113281 C123.55048597 185.62484225 127.02878238 189.63890249 130.35308838 193.91802979 C132.39566899 196.50019142 134.6134978 198.7376212 137 201 C137.76570313 200.566875 137.76570313 200.566875 138.546875 200.125 C145.58884568 196.52910008 152.57327458 195.52334002 160.296875 197.625 C166.41732993 200.28194168 170.55550787 205.29647179 174.16796875 210.76953125 C176.46008615 216.91412766 176.0459098 225.6054624 174.125 231.83984375 C170.50959339 238.79712292 164.73827874 244.11620797 157.2265625 246.5234375 C149.54092899 248.16843274 143.11339961 247.47681504 136.23046875 243.625 C131.16284967 239.93300431 127.93054369 234.92446664 126 229 C125.86245375 226.06702851 125.87540084 223.16582591 125.9296875 220.23046875 C124.72222896 216.03480398 123.19806455 213.61204818 120.00439453 210.63012695 C113.12181516 206.89577115 104.63169025 207.91412815 97 208 C95.15753262 207.99190053 93.3150773 207.98021634 91.47265625 207.96484375 C86.98084695 207.93512674 82.49164906 207.95427054 78 208 C78.34224609 208.83144531 78.34224609 208.83144531 78.69140625 209.6796875 C78.97886719 210.40414062 79.26632812 211.12859375 79.5625 211.875 C79.85253906 212.59429687 80.14257812 213.31359375 80.44140625 214.0546875 C81 216 81 216 80 218 C79.01 218 78.02 218 77 218 C77 218.66 77 219.32 77 220 C76.34 220 75.68 220 75 220 C75 221.98 75 223.96 75 226 C74.01 226 73.02 226 72 226 C72 227.65 72 229.3 72 231 C67.4023563 226.4023563 63.91729003 222.0151112 60.69921875 216.328125 C60.05903809 215.20124268 59.41885742 214.07436035 58.75927734 212.91333008 C58.42192566 212.31678619 58.08457397 211.72024231 57.73699951 211.10562134 C55.94115705 207.93039014 54.13658467 204.76013009 52.33203125 201.58984375 C51.96609863 200.94661667 51.60016602 200.30338959 51.22314453 199.64067078 C47.82164426 193.66977847 44.35406551 187.73849003 40.875 181.8125 C35.45109679 172.56213923 30.18474082 163.23119661 24.96826172 153.86254883 C21.34785556 147.37161224 17.64451849 140.9417424 13.8425293 134.5559082 C9.33012002 126.93896134 5.03869717 119.19764123 0.73242188 111.46289062 C0.16201172 110.43873047 -0.40839844 109.41457031 -0.99609375 108.359375 C-1.50325928 107.44639648 -2.0104248 106.53341797 -2.53295898 105.59277344 C-3.52503031 103.83943719 -4.55463187 102.10689618 -5.61743164 100.39550781 C-11.82207452 89.64502999 -10.16247974 74.73200299 -10.16796875 62.7578125 C-10.17118757 61.10016858 -10.1745521 59.44252494 -10.17805481 57.78488159 C-10.18400869 54.33053935 -10.18589824 50.87622201 -10.18530273 47.421875 C-10.18520053 42.99677164 -10.1989295 38.57182661 -10.21607494 34.14676094 C-10.22718277 30.73242455 -10.22922243 27.31812687 -10.22869301 23.90377426 C-10.229872 22.27149782 -10.23428924 20.63922035 -10.24202538 19.00696182 C-10.25181448 16.73125171 -10.24895325 14.45589143 -10.24291992 12.18017578 C-10.24434494 10.88685333 -10.24576996 9.59353088 -10.24723816 8.26101685 C-10.01437871 5.18965207 -9.78076208 3.48095395 -8 1 C-2.66666667 -1.33333333 -2.66666667 -1.33333333 0 0 Z " fill="#1E8BD2" transform="translate(566,281)"/>
<path d="M0 0 C7.26 0 14.52 0 22 0 C22.33 13.86 22.66 27.72 23 42 C25.64 39.69 28.28 37.38 31 35 C39.36417418 30.65062943 47.5012375 29.3684348 56.76953125 31.6953125 C67.74479977 35.70777626 75.90802804 43.14989168 80.8125 53.6875 C83.8664177 60.67494276 84.21149315 66.49108991 84.25 74.0625 C84.270625 75.04927734 84.29125 76.03605469 84.3125 77.05273438 C84.38040314 90.01374599 80.76325485 101.59352978 71.91015625 111.1796875 C64.73578139 118.01661733 55.93452575 121.02617173 46.125 121.5 C36.92979855 121.25116079 28.48407926 117.48407926 22 111 C21.505 110.01 21.505 110.01 21 109 C20.67 112.3 20.34 115.6 20 119 C13.07 119 6.14 119 -1 119 C-0.67 79.73 -0.34 40.46 0 0 Z " fill="#F9F9F9" transform="translate(360,705)"/>
<path d="M0 0 C8.58 0 17.16 0 26 0 C27.299375 3.774375 28.59875 7.54875 29.9375 11.4375 C34.52303276 24.74106781 39.12547486 38.03878066 43.73440552 51.33425903 C44.49045154 53.51553524 45.24621254 55.69691026 46.00167847 57.87838745 C47.08101077 60.99473678 48.16146223 64.11069601 49.2421875 67.2265625 C49.56170883 68.14970749 49.88123016 69.07285248 50.21043396 70.02397156 C52.4139212 76.37146256 54.68837812 82.69111355 57 89 C59.01754758 85.97367863 60.04547374 83.36666897 61.25 79.9453125 C61.68852295 78.70515381 62.1270459 77.46499512 62.57885742 76.18725586 C63.05269485 74.83321369 63.5264058 73.47912726 64 72.125 C64.49232301 70.72719931 64.98492121 69.32949551 65.4777832 67.93188477 C69.17826939 57.42041427 72.80648665 46.88428454 76.41967773 36.3425293 C79.37053867 27.7559931 82.42509416 19.21183947 85.5769043 10.69702148 C86.03577026 9.45287476 86.03577026 9.45287476 86.50390625 8.18359375 C86.77017822 7.46743896 87.0364502 6.75128418 87.31079102 6.01342773 C87.98508247 4.04357948 88.49502643 2.01989426 89 0 C97.25 0 105.5 0 114 0 C110.624493 11.25169002 110.624493 11.25169002 108.60253906 16.66674805 C108.15017883 17.88274185 107.6978186 19.09873566 107.23175049 20.35157776 C106.74313996 21.65499482 106.25442859 22.95837408 105.765625 24.26171875 C105.24949853 25.64480396 104.73361478 27.02797977 104.21795654 28.41123962 C102.8481418 32.08282593 101.4740376 35.75279162 100.09869385 39.42230988 C99.24867942 41.69102467 98.39979185 43.96015791 97.55126953 46.22943115 C90.76218372 64.38454462 83.94694603 82.52958534 77 100.625 C76.68953735 101.43568939 76.37907471 102.24637878 76.0592041 103.08163452 C75.2093851 105.29788025 74.35566039 107.51256657 73.5 109.7265625 C73.0359375 110.92877441 72.571875 112.13098633 72.09375 113.36962891 C71 116 71 116 70 117 C68.00035018 117.08758003 65.9976389 117.10696576 63.99609375 117.09765625 C62.17368164 117.09282227 62.17368164 117.09282227 60.31445312 117.08789062 C59.03505859 117.07951172 57.75566406 117.07113281 56.4375 117.0625 C55.15423828 117.05798828 53.87097656 117.05347656 52.54882812 117.04882812 C49.36583978 117.03699545 46.18294238 117.02051068 43 117 C31.53234759 86.90317044 20.11258989 56.7889837 8.85137939 26.61419678 C7.30313545 22.46729134 5.74527921 18.32478638 4.15869141 14.19238281 C3.87528397 13.45013458 3.59187653 12.70788635 3.29988098 11.94314575 C2.7760968 10.57312746 2.24845032 9.20457662 1.71611023 7.83786011 C0.65488188 5.05386576 0 3.01139343 0 0 Z " fill="#F9F9F9" transform="translate(437,707)"/>
<path d="M0 0 C9.77641436 7.1443028 15.42123055 16.59378958 17.3984375 28.45703125 C17.3984375 34.06703125 17.3984375 39.67703125 17.3984375 45.45703125 C-2.0715625 45.45703125 -21.5415625 45.45703125 -41.6015625 45.45703125 C-38.88302421 55.87946667 -38.88302421 55.87946667 -31.6640625 62.70703125 C-24.94049794 66.16486445 -18.13446136 66.72082666 -10.85546875 64.69140625 C-6.16638744 62.93561355 -2.29953659 60.90847374 1.3984375 57.45703125 C5.09719841 58.82990467 8.3498851 60.52058578 11.7109375 62.58203125 C12.59394531 63.12085938 13.47695313 63.6596875 14.38671875 64.21484375 C15.05058594 64.62476563 15.71445312 65.0346875 16.3984375 65.45703125 C7.97356911 75.88782069 -0.97928726 82.68875514 -14.6015625 84.45703125 C-28.37272642 85.54724839 -39.54145263 82.27962411 -50.53125 74.00390625 C-57.8802419 67.53679337 -63.00863592 56.77629708 -63.79443359 47.07617188 C-64.30323605 31.52223509 -63.73942002 18.47709531 -52.6015625 6.45703125 C-52.10140625 5.915625 -51.60125 5.37421875 -51.0859375 4.81640625 C-37.81905055 -7.93526179 -15.46236898 -9.17062425 0 0 Z " fill="#F9F9F9" transform="translate(835.6015625,741.54296875)"/>
<path d="M0 0 C0.96236572 0.00572021 1.92473145 0.01144043 2.91625977 0.01733398 C12.41266007 0.2554053 19.97982089 2.30874616 27.125 8.8125 C36.05396137 18.89288462 36.43167841 31.0508781 36.3203125 43.9453125 C36.3174826 45.19633759 36.31465271 46.44736267 36.31173706 47.73629761 C36.30250168 51.02751564 36.28460118 54.31852961 36.2623291 57.60968018 C36.24169861 60.98194917 36.23269895 64.3542483 36.22265625 67.7265625 C36.20070389 74.31779695 36.16623031 80.90885909 36.125 87.5 C28.865 87.5 21.605 87.5 14.125 87.5 C13.63 83.045 13.63 83.045 13.125 78.5 C11.7328125 79.86125 11.7328125 79.86125 10.3125 81.25 C2.34212896 87.95019239 -6.89356533 89.42562903 -17.05859375 88.94140625 C-23.49485867 88.19698666 -28.22354718 86.25129832 -32.7421875 81.5625 C-37.43958758 75.628942 -39.16445548 70.69023543 -39.1875 63.0625 C-39.20425781 61.78503906 -39.22101563 60.50757813 -39.23828125 59.19140625 C-38.44108767 51.09089082 -33.78764617 46.98788527 -27.875 41.9375 C-15.90480742 33.8816109 0.24987043 33.90778638 14.125 32.5 C13.83238281 31.22898437 13.53976562 29.95796875 13.23828125 28.6484375 C13.07368408 27.93349121 12.90908691 27.21854492 12.73950195 26.48193359 C11.57357462 22.72150526 9.19566895 21.09481608 5.875 19.25 C-3.11218916 16.79894841 -10.87903874 19.76522815 -18.80078125 24.1015625 C-21.18851578 25.52677321 -23.54447963 26.98339238 -25.875 28.5 C-27.10312793 26.09167108 -28.30728415 23.67578675 -29.5 21.25 C-29.850625 20.56808594 -30.20125 19.88617187 -30.5625 19.18359375 C-33.01489201 14.13166622 -33.01489201 14.13166622 -32.3671875 11.20703125 C-30.54421211 9.12158558 -28.76028824 7.85282134 -26.375 6.4375 C-25.5809375 5.95152344 -24.786875 5.46554687 -23.96875 4.96484375 C-16.11418656 1.24582697 -8.65091422 -0.05998615 0 0 Z " fill="#F9F8F8" transform="translate(307.875,736.5)"/>
<path d="M0 0 C1.23546142 1.03083013 2.44563057 2.09293916 3.625 3.1875 C4.16769531 3.68894531 4.71039062 4.19039062 5.26953125 4.70703125 C15.87157531 15.7385252 15.625 29.67689413 15.625 44.1875 C-3.845 44.1875 -23.315 44.1875 -43.375 44.1875 C-39.39717448 55.73887072 -39.39717448 55.73887072 -30.8125 62.5 C-24.79756821 65.28048734 -18.08626711 65.28299451 -11.78125 63.421875 C-8.21225177 61.92289574 -5.60319029 60.38915654 -2.6875 57.8125 C-0.375 56.1875 -0.375 56.1875 2.375 56.5625 C6.7236872 58.7368436 10.65901864 61.38487318 14.625 64.1875 C7.45357864 73.06640263 0.08264113 79.71902576 -11.375 82.1875 C-26.2352655 83.33156844 -39.46750441 83.1198979 -51.30859375 73.1640625 C-59.47283155 65.35479156 -65.29897617 55.35407804 -65.61328125 43.84375 C-65.94948224 28.19899453 -63.59192589 15.78204568 -52.6875 4 C-38.76779962 -9.34298963 -15.79271311 -11.15659468 0 0 Z " fill="#F9F9F9" transform="translate(608.375,742.8125)"/>
<path d="M0 0 C7.59 0 15.18 0 23 0 C23 31.68 23 63.36 23 96 C40.16 96 57.32 96 75 96 C75 102.93 75 109.86 75 117 C50.25 117 25.5 117 0 117 C0 78.39 0 39.78 0 0 Z " fill="#FAFAFA" transform="translate(184,707)"/>
<path d="M0 0 C3.21643665 2.09331241 6.3352051 4.22578115 9 7 C9 10 9 10 6.59375 12.69921875 C5.5700032 13.70302243 4.5383946 14.69885649 3.5 15.6875 C2.97535156 16.19861328 2.45070313 16.70972656 1.91015625 17.23632812 C0.61339096 18.49772708 -0.69246117 19.74977212 -2 21 C-2.83144531 20.50628906 -3.66289063 20.01257813 -4.51953125 19.50390625 C-5.60621094 18.86324219 -6.69289063 18.22257813 -7.8125 17.5625 C-8.89144531 16.92441406 -9.97039063 16.28632812 -11.08203125 15.62890625 C-15.56987664 13.12364316 -18.84957395 12.83919426 -23.9375 12.8125 C-25.77634766 12.79123047 -25.77634766 12.79123047 -27.65234375 12.76953125 C-30.77563906 12.98455391 -32.48094992 13.19548816 -35 15 C-36.26010343 17.80857748 -36.26010343 17.80857748 -36 21 C-31.01627493 27.91290896 -23.62478843 28.91951595 -15.75 30.3125 C-6.12318568 32.16491791 2.67469754 35.3071178 8.9140625 43.19140625 C12.81751733 49.69248391 13.01948157 56.34733244 11.41796875 63.65625 C9.12523929 70.44021661 5.09028428 75.24582746 -1 79 C-8.79036571 82.66889479 -15.88620857 83.68229533 -24.4375 83.5625 C-25.53698975 83.55226807 -26.63647949 83.54203613 -27.76928711 83.53149414 C-39.10409864 83.23416275 -46.87987319 80.59340595 -55.37890625 72.84375 C-57.25004547 70.71561094 -58.61157358 68.4645624 -60 66 C-58.42173185 64.53618641 -56.83717771 63.07914837 -55.25 61.625 C-54.36828125 60.81289063 -53.4865625 60.00078125 -52.578125 59.1640625 C-50.40197479 57.3374152 -48.59179881 56.10212006 -46 55 C-45.50371094 55.47050781 -45.00742187 55.94101562 -44.49609375 56.42578125 C-43.81675781 57.04839844 -43.13742187 57.67101562 -42.4375 58.3125 C-41.77621094 58.92738281 -41.11492188 59.54226563 -40.43359375 60.17578125 C-34.83569629 64.371958 -29.65519767 65.49035308 -22.875 65.375 C-22.18535156 65.38660156 -21.49570312 65.39820313 -20.78515625 65.41015625 C-16.3903034 65.38494677 -13.41230359 64.83704934 -10 62 C-9.31850055 57.45256066 -9.31850055 57.45256066 -11.14453125 53.3984375 C-13.68694362 51.48226144 -16.10889296 50.92565039 -19.1875 50.125 C-20.43273437 49.7846875 -21.67796875 49.444375 -22.9609375 49.09375 C-23.61932617 48.91585937 -24.27771484 48.73796875 -24.95605469 48.5546875 C-48.65844818 42.12231316 -48.65844818 42.12231316 -54.5 33.8125 C-58.16454991 26.94146892 -58.19437198 17.975282 -56.38671875 10.4453125 C-52.72155932 2.14622903 -44.26938133 -1.9310024 -36.21484375 -5.08984375 C-24.42857941 -8.42665978 -10.72656662 -5.52426654 0 0 Z " fill="#F9F9F9" transform="translate(753,742)"/>
<path d="M0 0 C2.908125 0.0309375 2.908125 0.0309375 5.875 0.0625 C5.875 6.6625 5.875 13.2625 5.875 20.0625 C2.905 20.4028125 2.905 20.4028125 -0.125 20.75 C-9.15737985 22.16222877 -14.28435444 25.49266036 -19.99609375 32.51171875 C-22.12342812 35.43404312 -22.2687892 37.40227367 -22.33032227 40.97119141 C-22.35026749 41.99209869 -22.37021271 43.01300598 -22.39076233 44.06484985 C-22.41583107 45.72271011 -22.41583107 45.72271011 -22.44140625 47.4140625 C-22.46218735 48.5432309 -22.48296844 49.67239929 -22.50437927 50.83578491 C-22.56991335 54.45295972 -22.62877774 58.07020881 -22.6875 61.6875 C-22.73068154 64.13542444 -22.77429571 66.58334128 -22.81835938 69.03125 C-22.92559871 75.04158999 -23.0268553 81.0520049 -23.125 87.0625 C-30.385 87.0625 -37.645 87.0625 -45.125 87.0625 C-45.125 58.6825 -45.125 30.3025 -45.125 1.0625 C-37.865 1.0625 -30.605 1.0625 -23.125 1.0625 C-23.125 5.3525 -23.125 9.6425 -23.125 14.0625 C-22.135 12.845625 -21.145 11.62875 -20.125 10.375 C-14.54308866 3.96319145 -8.54817224 -0.090938 0 0 Z " fill="#F9F8F8" transform="translate(683.125,736.9375)"/>
<path d="M0 0 C0.99 0.86625 1.98 1.7325 3 2.625 C6.86190708 5.94197541 10.89447006 8.99283262 15 12 C15.51046875 11.71125 16.0209375 11.4225 16.546875 11.125 C23.58884568 7.52910008 30.57327458 6.52334002 38.296875 8.625 C44.41732993 11.28194168 48.55550787 16.29647179 52.16796875 21.76953125 C54.46008615 27.91412766 54.0459098 36.6054624 52.125 42.83984375 C48.50959339 49.79712292 42.73827874 55.11620797 35.2265625 57.5234375 C27.54092899 59.16843274 21.11339961 58.47681504 14.23046875 54.625 C9.21793844 50.97313904 5.81601058 45.91321671 4 40 C4.26953125 37.38671875 4.26953125 37.38671875 4.8125 34.6875 C5.22231956 31.27540682 5.35619252 29.61652587 3.62109375 26.61328125 C1.83854159 24.60000208 0.00684427 22.78760918 -2 21 C-3.0045146 20.00453508 -4.00615367 19.00611604 -5 18 C-4.67 17.34 -4.34 16.68 -4 16 C-3.34 16.33 -2.68 16.66 -2 17 C-1.72122718 13.74765041 -1.83294358 12.27397254 -3.5625 9.4375 C-5 7 -5 7 -4.9375 4.875 C-3.73851606 2.47703213 -2.2284402 1.43770335 0 0 Z " fill="#1E8BD4" transform="translate(688,470)"/>
<path d="M0 0 C6.30549145 3.67425254 11.02270948 8.57349807 13.38671875 15.625 C15.52487024 26.06713518 13.99718886 36.0947072 9.140625 45.4609375 C5.38732887 49.83978298 2.41862698 51.77702953 -3.2421875 52.46875 C-8.24774445 52.6397827 -12.02961499 52.58725465 -16.609375 50.4609375 C-24.1795331 43.2692873 -27.19866506 37.20728319 -27.484375 26.6484375 C-27.21635759 17.45007993 -25.49310983 10.45703024 -18.99609375 3.71484375 C-13.65187914 -0.89910551 -6.61763494 -2.86764181 0 0 Z " fill="#111419" transform="translate(408.109375,754.9140625)"/>
<path d="M0 0 C4.05618244 4.05618244 3.76809987 9.95253027 4.1171875 15.4140625 C3.89118111 22.32985809 0.5940537 26.75043215 -4.3125 31.375 C-10.41263916 36.09768838 -16.49439496 37.6291525 -24.1796875 37.42578125 C-30.12701325 36.52791628 -36.08101586 33.64864485 -40 29 C-41.47545119 25.20598267 -42.30165034 23.01268328 -41.125 19.0625 C-40.568125 18.0415625 -40.568125 18.0415625 -40 17 C-39.34 17 -38.68 17 -38 17 C-37.67 17.66 -37.34 18.32 -37 19 C-35.68 19 -34.36 19 -33 19 C-32.67 18.01 -32.34 17.02 -32 16 C-31.34 16 -30.68 16 -30 16 C-28.5 18.5 -28.5 18.5 -27 21 C-26.34 21 -25.68 21 -25 21 C-25.639375 20.525625 -26.27875 20.05125 -26.9375 19.5625 C-29.8676014 15.92207099 -30.43146371 12.62624974 -30 8 C-27.76596091 3.60895765 -27.76596091 3.60895765 -25 2 C-21.47999365 1.1531245 -18.51762508 1.13358988 -15 2 C-11.48801511 4.34132326 -10.16792385 7.30247014 -9.1875 11.375 C-9.125625 12.24125 -9.06375 13.1075 -9 14 C-8.7525 13.21625 -8.505 12.4325 -8.25 11.625 C-6.84610901 8.67682892 -5.99324263 8.0975223 -3 7 C-3 6.01 -3 5.02 -3 4 C-1.5 1.8125 -1.5 1.8125 0 0 Z M-38 14 C-37.34 14.66 -36.68 15.32 -36 16 C-36.99 16.495 -36.99 16.495 -38 17 C-38 16.01 -38 15.02 -38 14 Z " fill="#1E88D1" transform="translate(737,491)"/>
<path d="M0 0 C3.53630643 0.80124149 5.04857445 2.80181866 7.19921875 5.59765625 C8.32358659 7.57333117 8.86028655 9.29711813 9.29296875 11.51953125 C10.28296875 10.52953125 11.27296875 9.53953125 12.29296875 8.51953125 C13.28296875 8.84953125 14.27296875 9.17953125 15.29296875 9.51953125 C15.29296875 10.17953125 15.29296875 10.83953125 15.29296875 11.51953125 C16.61296875 12.17953125 17.93296875 12.83953125 19.29296875 13.51953125 C18.30296875 13.84953125 17.31296875 14.17953125 16.29296875 14.51953125 C17.28296875 14.84953125 18.27296875 15.17953125 19.29296875 15.51953125 C20.56613845 19.84830822 20.13530367 22.41614894 18.29296875 26.51953125 C14.0607453 32.74338927 8.66610595 35.98104199 1.29296875 37.51953125 C-6.66873858 38.19425221 -12.76278442 35.9424869 -19.14453125 31.14453125 C-22.65680613 27.54659113 -23.6160061 24.61310973 -23.83203125 19.64453125 C-23.79078125 18.94328125 -23.74953125 18.24203125 -23.70703125 17.51953125 C-23.06894531 17.32617188 -22.43085937 17.1328125 -21.7734375 16.93359375 C-20.94714844 16.67320312 -20.12085938 16.4128125 -19.26953125 16.14453125 C-18.44582031 15.88929688 -17.62210938 15.6340625 -16.7734375 15.37109375 C-14.52905109 14.71070898 -14.52905109 14.71070898 -13.70703125 12.51953125 C-13.37703125 12.84953125 -13.04703125 13.17953125 -12.70703125 13.51953125 C-12.76890625 12.63265625 -12.83078125 11.74578125 -12.89453125 10.83203125 C-12.68400184 7.11267841 -11.92026645 5.47051151 -9.70703125 2.51953125 C-6.16306984 0.15689031 -4.16434356 -0.07472721 0 0 Z " fill="#1E87D0" transform="translate(750.70703125,422.48046875)"/>
<path d="M0 0 C5.01791684 2.41935276 8.49958655 5.9991731 11 11 C11.5072965 16.55531248 11.76260422 21.41830236 9.3125 26.5 C2.62018021 33.73494031 2.62018021 33.73494031 -2.35546875 34.23828125 C-8.8796256 34.40925915 -12.7879057 34.04203231 -18 30 C-21.90278253 24.96746463 -23.47576431 20.77795998 -23.4140625 14.484375 C-22.5012756 9.00765362 -19.05579822 4.52294082 -14.6640625 1.26953125 C-9.93484937 -0.98412604 -5.11733954 -0.62491256 0 0 Z " fill="#1E89D2" transform="translate(531,398)"/>
<path d="M0 0 C1.16144531 0.00902344 2.32289063 0.01804687 3.51953125 0.02734375 C4.39996094 0.03894531 5.28039062 0.05054688 6.1875 0.0625 C6.77964708 6.48400608 6.49280782 11.04191499 2.67578125 16.375 C-1.48303642 21.0905098 -6.79279619 23.58448117 -12.98046875 24.3203125 C-18.43259834 24.59428886 -21.52096753 23.7103026 -25.8125 20.0625 C-27.41377074 16.85995853 -27.21951607 14.60935436 -26.8125 11.0625 C-24.34526059 6.45761423 -21.15884423 3.87850654 -16.25 2.1875 C-14.78118093 1.7738219 -13.30089583 1.39900688 -11.8125 1.0625 C-10.64847656 0.78212891 -10.64847656 0.78212891 -9.4609375 0.49609375 C-6.27115564 -0.02612717 -3.23072021 -0.03263354 0 0 Z " fill="#101317" transform="translate(316.8125,783.9375)"/>
<path d="M0 0 C4.887467 2.73698152 7.13925109 7.40555401 8.75 12.625 C8.75 14.605 8.75 16.585 8.75 18.625 C-3.79 18.625 -16.33 18.625 -29.25 18.625 C-27.32023279 10.90593114 -25.76131826 6.00611432 -19.39453125 1.234375 C-13.12066122 -2.32207029 -6.69832888 -2.64407719 0 0 Z " fill="#12161A" transform="translate(594.25,754.375)"/>
<path d="M0 0 C3.92798733 2.26614654 5.83571118 4.0121379 8.25 7.875 C8.91 11.505 9.57 15.135 10.25 18.875 C-2.29 18.875 -14.83 18.875 -27.75 18.875 C-26.31768122 10.28108734 -23.59631724 5.86710632 -16.75 0.875 C-11.28754632 -2.30679583 -5.90884026 -1.77265208 0 0 Z " fill="#181A1E" transform="translate(821.75,754.125)"/>
<path d="M0 0 C3 0 3 0 5 1.625 C9.74413061 7.2586551 10.49515318 11.88233031 10.28125 19.1015625 C9.59857993 26.13685687 6.00860694 31.26117751 1 36 C-3.47154049 39.49499716 -7.31432784 40.4641365 -13 40 C-11.02 39.505 -11.02 39.505 -9 39 C-8.23043864 36.65466049 -8.23043864 36.65466049 -8 34 C-9.33378575 32.1645201 -9.33378575 32.1645201 -11 31 C-11.99 31.33 -12.98 31.66 -14 32 C-13.67 31.01 -13.34 30.02 -13 29 C-12.01 28.67 -11.02 28.34 -10 28 C-12.64 28 -15.28 28 -18 28 C-18 27.67 -18 27.34 -18 27 C-17.39671875 26.91363281 -16.7934375 26.82726562 -16.171875 26.73828125 C-12.15310187 26.03175501 -9.59136831 25.5048266 -6.4375 22.8125 C-4.61476144 19.24627238 -4.57530533 16.96381692 -5 13 C-5.8974827 10.16621868 -5.8974827 10.16621868 -7 8 C-6.05125 7.71125 -5.1025 7.4225 -4.125 7.125 C-0.94788422 6.23174891 -0.94788422 6.23174891 1 4 C0.6814823 1.89179203 0.6814823 1.89179203 0 0 Z " fill="#1E8ED6" transform="translate(734,333)"/>
<path d="M0 0 C2.70567626 1.82339052 4.53728718 3.07457436 6 6 C6.54399285 10.539219 6.62289461 13.9544269 4.25 17.9375 C0.55740536 21.32237842 -0.78535494 22.01928008 -5.9375 21.9375 C-9.027108 21.42448673 -10.23666806 20.8388643 -12.9375 19 C-15.64916756 15.05575627 -16.71065677 11.78672262 -16 7 C-12.0907308 0.05878934 -7.79985055 -1.74824236 0 0 Z " fill="#1E87D0" transform="translate(481,437)"/>
<path d="M0 0 C1.03125 0.00322266 2.0625 0.00644531 3.125 0.00976562 C4.74535156 0.02233398 4.74535156 0.02233398 6.3984375 0.03515625 C8.03039062 0.04192383 8.03039062 0.04192383 9.6953125 0.04882812 C12.38807539 0.06063849 15.08072938 0.07710847 17.7734375 0.09765625 C17.4434375 0.75765625 17.1134375 1.41765625 16.7734375 2.09765625 C9.8434375 2.09765625 2.9134375 2.09765625 -4.2265625 2.09765625 C-4.2265625 41.69765625 -4.2265625 81.29765625 -4.2265625 122.09765625 C-5.2165625 121.76765625 -6.2065625 121.43765625 -7.2265625 121.09765625 C-7.2265625 81.49765625 -7.2265625 41.89765625 -7.2265625 1.09765625 C-4.66933021 -0.1809599 -2.85919148 -0.01570984 0 0 Z " fill="#1D2022" transform="translate(364.2265625,702.90234375)"/>
<path d="M0 0 C3.70390021 2.02666238 5.65363011 3.48044516 8 7 C8.48256365 11.26264558 8.26873267 13.49132744 6.25 17.3125 C4.07197608 19.91402857 3.06897499 20.81833262 0 22 C-4.37847613 22.23125754 -7.96750131 21.77437401 -11.5 19.125 C-14.27905954 15.18799899 -14.47900498 11.71021562 -14 7 C-10.38566438 0.94463921 -6.9253044 -0.5771087 0 0 Z " fill="#1F8CD4" transform="translate(501,356)"/>
<path d="M0 0 C5.53846154 3.07692308 5.53846154 3.07692308 7 6 C7.64507919 11.20671061 7.9173523 14.81709835 4.625 19.0625 C0.5100829 22.09970072 -1.83909023 22.51609098 -7 22 C-9.97672584 20.22719439 -12.42804007 18.14391985 -14 15 C-14.68128376 8.18716238 -14.68128376 8.18716238 -12.953125 5.17578125 C-8.88247975 0.23114452 -6.32187559 -0.52682297 0 0 Z " fill="#1E8AD2" transform="translate(522,312)"/>
<path d="M0 0 C2.75569447 2.18159145 4.43588747 3.87177494 6 7 C6.50533836 11.37959914 6.27875307 13.51443013 4.0625 17.375 C1.19368203 20.39866894 -1.68625301 21.09394423 -5.77734375 21.3125 C-9.67346466 20.76471499 -11.35907923 18.83898983 -14 16 C-15.60086627 12.79826746 -15.49917089 9.47422941 -15 6 C-11.10085179 -0.10866553 -6.96919421 -1.10736765 0 0 Z " fill="#111319" transform="translate(724,339)"/>
<path d="M0 0 C3.56829202 0.79497662 5.16883701 2.68073719 7.26171875 5.578125 C8.82865684 8.5050471 8.98730935 10.26667731 8.296875 13.51171875 C5.13898026 19.09066612 5.13898026 19.09066612 2.296875 20.51171875 C-0.76233074 20.93243467 -3.6498996 20.99685992 -6.703125 20.51171875 C-9.45881947 18.3301273 -11.13901247 16.63994381 -12.703125 13.51171875 C-13.1168218 8.85762974 -12.51382893 6.25932399 -9.703125 2.51171875 C-6.16085648 0.1502064 -4.16345656 -0.08843944 0 0 Z " fill="#111319" transform="translate(750.703125,422.48828125)"/>
<path d="M0 0 C2.76527917 1.75134348 3.34903331 2.97322774 5 6 C5.55724601 9.9703778 5.38142821 12.18265383 3.6875 15.8125 C2 18 2 18 -1 20 C-5.79970536 20.54190222 -7.88202914 20.73738503 -11.9375 18.0625 C-14.63315284 14.05986397 -15.53202946 10.81359992 -15 6 C-11.67636828 -0.53265544 -7.06671434 -1.72613186 0 0 Z " fill="#111319" transform="translate(722,493)"/>
<path d="M0 0 C0.99 0 1.98 0 3 0 C3 28.38 3 56.76 3 86 C2.01 85.67 1.02 85.34 0 85 C0 56.95 0 28.9 0 0 Z " fill="#212327" transform="translate(635,738)"/>
<path d="M0 0 C0.33 0 0.66 0 1 0 C1.495 6.93 1.495 6.93 2 14 C-22.75 14 -47.5 14 -73 14 C-73 11.36 -73 8.72 -73 6 C-72.67 6 -72.34 6 -72 6 C-72 7.98 -72 9.96 -72 12 C-48.24 12 -24.48 12 0 12 C0 8.04 0 4.08 0 0 Z " fill="#E1E1E1" transform="translate(257,810)"/>
<path d="M0 0 C0.33 0.99 0.66 1.98 1 3 C1.66 2.67 2.32 2.34 3 2 C3 2.99 3 3.98 3 5 C2.01 5 1.02 5 0 5 C0 6.65 0 8.3 0 10 C-1.1446875 10.2165625 -1.1446875 10.2165625 -2.3125 10.4375 C-6.04787745 12.60923108 -6.37092715 15.0782752 -7.51953125 19.1015625 C-7.75736328 20.04128906 -7.75736328 20.04128906 -8 21 C-8.33 21 -8.66 21 -9 21 C-9.74191604 13.87760605 -8.45844303 9.59515655 -4 4 C-1.6875 1.5 -1.6875 1.5 0 0 Z " fill="#208FD7" transform="translate(704,330)"/>
<path d="M0 0 C0.33 0.66 0.66 1.32 1 2 C12.88 2 24.76 2 37 2 C37 2.66 37 3.32 37 4 C24.46 4 11.92 4 -1 4 C-0.67 2.68 -0.34 1.36 0 0 Z " fill="#38393A" transform="translate(566,769)"/>
<path d="M0 0 C0.99 0.33 1.98 0.66 3 1 C2.01 1 1.02 1 0 1 C0 0.67 0 0.34 0 0 Z M0 2 C0.66 2.66 1.32 3.32 2 4 C4.08613853 4.02183972 4.08613853 4.02183972 6.375 3.625 C9.3511342 3.19699408 11.96008154 3 15 3 C15.86625 2.79375 16.7325 2.5875 17.625 2.375 C18.40875 2.25125 19.1925 2.1275 20 2 C20.66 2.66 21.32 3.32 22 4 C22.99 4.33 23.98 4.66 25 5 C25 5.33 25 5.66 25 6 C14.77 6 4.54 6 -6 6 C-5.67 5.01 -5.34 4.02 -5 3 C-2.625 2.375 -2.625 2.375 0 2 Z " fill="#1F82CB" transform="translate(488,561)"/>
<path d="M0 0 C2 1 4 2 6 3 C6 2.34 6 1.68 6 1 C7.32 1.66 8.64 2.32 10 3 C10 4.32 10 5.64 10 7 C11.34976137 8.56768682 11.34976137 8.56768682 13.25390625 9.83984375 C13.94419922 10.34580078 14.63449219 10.85175781 15.34570312 11.37304688 C16.07724609 11.88931641 16.80878906 12.40558594 17.5625 12.9375 C18.26697266 13.44990234 18.97144531 13.96230469 19.69726562 14.49023438 C21.78869844 16.00724601 23.89237428 17.50559182 26 19 C27.34271511 19.95926153 28.68518389 20.91886799 30.02734375 21.87890625 C31.00832031 22.57886719 31.98929687 23.27882813 33 24 C29.06893448 24 27.01263393 22.20270176 23.9375 20 C23.07294189 19.39031372 23.07294189 19.39031372 22.19091797 18.76831055 C16.96320687 15.04672977 11.93248483 11.10465521 7 7 C6.28328125 6.40703125 5.5665625 5.8140625 4.828125 5.203125 C3.19428133 3.83069631 1.59289309 2.41975253 0 1 C0 0.67 0 0.34 0 0 Z " fill="#21A7E5" transform="translate(400,608)"/>
<path d="M0 0 C0 0.99 0 1.98 0 3 C-0.66 3 -1.32 3 -2 3 C-2 3.66 -2 4.32 -2 5 C-2.99 5 -3.98 5 -5 5 C-4.75376211 11.06494318 -4.75376211 11.06494318 -2.4375 16.5625 C1.02550182 18.60478313 4.14825 18.8928386 8 18 C10.38185928 16.54776934 12.00457642 14.99542358 14 13 C13.76764791 16.25292927 12.91099669 17.08032006 10.4375 19.3125 C6.69757565 21.14846286 4.89082798 21.44792679 0.8984375 20.66015625 C-2.50437764 19.4768728 -3.97365827 17.94740615 -6 15 C-7.01736112 11.91381515 -7.40268593 9.23283073 -7 6 C-5.45877322 3.03842697 -3.62540831 0 0 0 Z " fill="#2096DD" transform="translate(472,438)"/>
<path d="M0 0 C1.16144531 0.00902344 2.32289063 0.01804687 3.51953125 0.02734375 C4.39996094 0.03894531 5.28039062 0.05054688 6.1875 0.0625 C6.1875 3.3625 6.1875 6.6625 6.1875 10.0625 C5.1975 10.0625 4.2075 10.0625 3.1875 10.0625 C3.1875 7.7525 3.1875 5.4425 3.1875 3.0625 C-4.37657533 2.85660279 -4.37657533 2.85660279 -11.8125 4.0625 C-11.8125 3.0725 -11.8125 2.0825 -11.8125 1.0625 C-7.81454108 0.10630267 -4.10446078 -0.0414592 0 0 Z " fill="#1C1E20" transform="translate(316.8125,783.9375)"/>
<path d="M0 0 C2.31 0.33 4.62 0.66 7 1 C7 2.32 7 3.64 7 5 C4.15385976 7.84614024 1.19630858 7.45579076 -2.625 7.625 C-3.68460938 7.68300781 -3.68460938 7.68300781 -4.765625 7.7421875 C-6.50998524 7.83647724 -8.25495691 7.91932891 -10 8 C-10 7.34 -10 6.68 -10 6 C-7.36 5.67 -4.72 5.34 -2 5 C-1.34 3.35 -0.68 1.7 0 0 Z " fill="#1D82CC" transform="translate(586,559)"/>
<path d="M0 0 C5.53846154 3.07692308 5.53846154 3.07692308 7 6 C7.06996014 7.70702735 7.08440154 9.41668003 7.0625 11.125 C7.05347656 12.03507812 7.04445313 12.94515625 7.03515625 13.8828125 C7.02355469 14.58148438 7.01195312 15.28015625 7 16 C6.34 16.33 5.68 16.66 5 17 C5.02320313 16.39671875 5.04640625 15.7934375 5.0703125 15.171875 C5.08835937 14.37265625 5.10640625 13.5734375 5.125 12.75 C5.14820313 11.96109375 5.17140625 11.1721875 5.1953125 10.359375 C4.97962391 7.75385683 4.3921178 6.20013023 3 4 C-0.19574307 2.40212847 -3.52394032 2.63518582 -7 3 C-9.53958234 3.88329643 -9.53958234 3.88329643 -11 6 C-11.81314911 9.60465748 -11.81314911 9.60465748 -12 13 C-12.66 13 -13.32 13 -14 13 C-14.34751969 10.08083462 -14.53280018 7.86804524 -12.95703125 5.30078125 C-8.81596684 0.2853572 -6.46100124 -0.53841677 0 0 Z " fill="#1F9EE3" transform="translate(522,312)"/>
<path d="M0 0 C0 0.33 0 0.66 0 1 C-2.64 1 -5.28 1 -8 1 C-7.67 1.99 -7.34 2.98 -7 4 C-7.4375 6.1875 -7.4375 6.1875 -8 8 C-8.99 8 -9.98 8 -11 8 C-11 8.66 -11 9.32 -11 10 C-11.99 10.33 -12.98 10.66 -14 11 C-14.6875 9.1875 -14.6875 9.1875 -15 7 C-13.5625 5.25 -13.5625 5.25 -12 4 C-12.928125 4.4640625 -12.928125 4.4640625 -13.875 4.9375 C-15.25 5.625 -16.625 6.3125 -18 7 C-17.04908327 4.49303771 -16.06198622 3.05598755 -14.0625 1.25 C-9.44046014 -0.63654688 -4.92876009 -0.23305871 0 0 Z " fill="#2093DB" transform="translate(530,398)"/>
<path d="M0 0 C1.70840281 1.63412443 2.93453047 2.86906094 4 5 C4.5775 4.835 5.155 4.67 5.75 4.5 C8 4 8 4 12 4 C11.67 4.99 11.34 5.98 11 7 C11.66 7.66 12.32 8.32 13 9 C12.01 9 11.02 9 10 9 C9.67 9.66 9.34 10.32 9 11 C8.34 10.67 7.68 10.34 7 10 C7.33 11.32 7.66 12.64 8 14 C5.50447597 11.72402354 3.93377014 9.39278822 2.3125 6.4375 C1.87550781 5.65246094 1.43851563 4.86742187 0.98828125 4.05859375 C0 2 0 2 0 0 Z " fill="#1F8FD5" transform="translate(562,382)"/>
<path d="M0 0 C4.48500344 1.59810467 8.34013097 3.89574313 12.375 6.375 C21.63128793 12.61308625 21.63128793 12.61308625 32 16 C32 16.99 32 17.98 32 19 C29.04282206 18.37097107 26.66746503 17.41881165 24.0234375 15.9609375 C22.89977783 15.34206665 22.89977783 15.34206665 21.75341797 14.71069336 C20.96854004 14.26991455 20.18366211 13.82913574 19.375 13.375 C18.57336426 12.92713135 17.77172852 12.4792627 16.94580078 12.01782227 C11.07499147 8.69775791 5.22615819 5.29385359 0 1 C0 0.67 0 0.34 0 0 Z " fill="#21A3E3" transform="translate(433,633)"/>
<path d="M0 0 C6.48114564 -0.47135605 11.41554435 0.53578374 17 4 C17.99 5.485 17.99 5.485 19 7 C17.906875 7.309375 16.81375 7.61875 15.6875 7.9375 C13.44592006 8.58337897 11.2130649 9.2623117 9 10 C9.66 8.02 10.32 6.04 11 4 C9.34623289 2.34623289 7.19051636 2.36528792 4.9375 1.9375 C4.01839844 1.76089844 3.09929688 1.58429688 2.15234375 1.40234375 C1.44207031 1.26957031 0.73179687 1.13679688 0 1 C0 0.67 0 0.34 0 0 Z " fill="#2095DE" transform="translate(746,407)"/>
<path d="M0 0 C0.33 0 0.66 0 1 0 C1 2.97 1 5.94 1 9 C2.27617188 8.96519531 3.55234375 8.93039062 4.8671875 8.89453125 C6.53644521 8.86639769 8.2057171 8.83909707 9.875 8.8125 C11.13763672 8.77479492 11.13763672 8.77479492 12.42578125 8.73632812 C13.23144531 8.72666016 14.03710938 8.71699219 14.8671875 8.70703125 C15.98262939 8.68346558 15.98262939 8.68346558 17.12060547 8.65942383 C18.05090576 8.82800903 18.05090576 8.82800903 19 9 C19.99 10.485 19.99 10.485 21 12 C13.74 12 6.48 12 -1 12 C-0.67 8.04 -0.34 4.08 0 0 Z " fill="#DCDCDD" transform="translate(639,812)"/>
<path d="M0 0 C0.66 0.33 1.32 0.66 2 1 C1.67 1.66 1.34 2.32 1 3 C2.98 2.67 4.96 2.34 7 2 C7 2.99 7 3.98 7 5 C3.71480525 6.09506492 1.26336585 6.09960608 -2.1875 6.0625 C-3.81751953 6.04896484 -3.81751953 6.04896484 -5.48046875 6.03515625 C-6.31191406 6.02355469 -7.14335938 6.01195312 -8 6 C-7.67 4.68 -7.34 3.36 -7 2 C-5.34385343 1.61781233 -3.67542976 1.28604898 -2 1 C-1.67 1.33 -1.34 1.66 -1 2 C-0.67 1.34 -0.34 0.68 0 0 Z " fill="#1E82CB" transform="translate(605,389)"/>
<path d="M0 0 C6.27 0.33 12.54 0.66 19 1 C19 1.33 19 1.66 19 2 C13.72 2 8.44 2 3 2 C3.04125 3.60875 3.0825 5.2175 3.125 6.875 C3.1953125 9.6171875 3.1953125 9.6171875 3 12 C2.34 12.66 1.68 13.32 1 14 C-0.5456757 9.36297289 -0.05735628 4.87528349 0 0 Z " fill="#121A23" transform="translate(573,347)"/>
<path d="M0 0 C0.66 0.33 1.32 0.66 2 1 C2.02714735 3.22909871 2.04646254 5.45829367 2.0625 7.6875 C2.07410156 8.92886719 2.08570313 10.17023437 2.09765625 11.44921875 C2.01478673 14.46235454 1.70839449 17.08275339 1 20 C0.34 20 -0.32 20 -1 20 C-1.02888514 16.85418577 -1.04675923 13.70840531 -1.0625 10.5625 C-1.07087891 9.66466797 -1.07925781 8.76683594 -1.08789062 7.84179688 C-1.09111328 6.98779297 -1.09433594 6.13378906 -1.09765625 5.25390625 C-1.10551147 4.06776733 -1.10551147 4.06776733 -1.11352539 2.85766602 C-1 1 -1 1 0 0 Z " fill="#191B1D" transform="translate(420,772)"/>
<path d="M0 0 C1.299375 0.4640625 1.299375 0.4640625 2.625 0.9375 C5.76150738 1.92491899 8.75067413 2.53581059 12 3 C12 3.33 12 3.66 12 4 C11.39671875 4.02578125 10.7934375 4.0515625 10.171875 4.078125 C4.95546103 4.4034799 4.95546103 4.4034799 0.5 6.9375 C-2.25846272 10.73038623 -2.08629122 13.34027431 -2 18 C-2.66 18 -3.32 18 -4 18 C-4.51137226 11.09647445 -2.86964374 6.25172386 0 0 Z " fill="#2096DF" transform="translate(741,419)"/>
<path d="M0 0 C0.433125 0.598125 0.86625 1.19625 1.3125 1.8125 C2.84108786 3.98909561 2.84108786 3.98909561 4.6171875 5.234375 C6.73797431 7.94227228 6.13563083 10.08834399 5.8125 13.4375 C5.71582031 14.57058594 5.61914062 15.70367188 5.51953125 16.87109375 C5.05117473 19.69179732 4.45127819 21.56925835 3 24 C2.34 23.34 1.68 22.68 1 22 C1.66 22 2.32 22 3 22 C3 18.7 3 15.4 3 12 C2.01 12.495 2.01 12.495 1 13 C0.375 11.125 0.375 11.125 0 9 C0.66 8.34 1.32 7.68 2 7 C1.01 6.67 0.02 6.34 -1 6 C-0.34 6 0.32 6 1 6 C0.67 4.02 0.34 2.04 0 0 Z " fill="#1E83CA" transform="translate(615,531)"/>
<path d="M0 0 C5.55872369 1.32926001 5.55872369 1.32926001 7.5625 4.375 C8 7 8 7 6.5625 9.0625 C6.046875 9.701875 5.53125 10.34125 5 11 C5.21717352 13.20800528 5.21717352 13.20800528 6 15 C3.27573689 12.64722731 2.1858237 10.37503669 1 7 C1.66 7 2.32 7 3 7 C2.505 6.21625 2.01 5.4325 1.5 4.625 C0 2 0 2 0 0 Z " fill="#2094DA" transform="translate(585,418)"/>
<path d="M0 0 C0.33 0 0.66 0 1 0 C0.67 5.94 0.34 11.88 0 18 C-1.98 18.66 -3.96 19.32 -6 20 C-6.33 19.01 -6.66 18.02 -7 17 C-5.36587557 15.29159719 -4.13093906 14.06546953 -2 13 C-1.30662208 9.9600352 -1.30662208 9.9600352 -0.875 6.4375 C-0.62363281 4.64119141 -0.62363281 4.64119141 -0.3671875 2.80859375 C-0.24601562 1.88175781 -0.12484375 0.95492187 0 0 Z " fill="#1F8ACF" transform="translate(370,533)"/>
<path d="M0 0 C0 6.01988409 -2.05058125 11.37243266 -4 17 C-4.33 17 -4.66 17 -5 17 C-5.74521523 9.84593383 -4.34707015 5.69776694 0 0 Z " fill="#2099E0" transform="translate(700,334)"/>
<path d="M0 0 C0 0.99 0 1.98 0 3 C-0.639375 3.474375 -1.27875 3.94875 -1.9375 4.4375 C-4.1673461 5.82479287 -4.1673461 5.82479287 -4.75 8.1875 C-4.8325 8.785625 -4.915 9.38375 -5 10 C-5.99 9.67 -6.98 9.34 -8 9 C-7.8125 6.1875 -7.8125 6.1875 -7 3 C-4.59196729 1.14766715 -3.07258075 0 0 0 Z " fill="#1B1D20" transform="translate(724,754)"/>
<path d="M0 0 C1 2 1 2 0.546875 3.91015625 C0.28390625 4.62042969 0.0209375 5.33070313 -0.25 6.0625 C-0.50265625 6.77535156 -0.7553125 7.48820313 -1.015625 8.22265625 C-2 10 -2 10 -5 11 C-5.70211894 12.65204456 -6.36971413 14.31923769 -7 16 C-7.66 16.33 -8.32 16.66 -9 17 C-7.51481201 12.95698825 -5.57122002 9.38853744 -3.375 5.6875 C-2.74335938 4.61886719 -2.11171875 3.55023437 -1.4609375 2.44921875 C-0.97882813 1.64097656 -0.49671875 0.83273437 0 0 Z " fill="#209CE1" transform="translate(413,513)"/>
<path d="M0 0 C0.33 0.66 0.66 1.32 1 2 C3.31 2 5.62 2 8 2 C8 2.99 8 3.98 8 5 C-0.57142857 5.28571429 -0.57142857 5.28571429 -4 3 C-4 2.34 -4 1.68 -4 1 C-2.68 0.67 -1.36 0.34 0 0 Z " fill="#1D80C4" transform="translate(744,455)"/>
<path d="M0 0 C5.95074431 5.79816112 5.95074431 5.79816112 6.09765625 9.3828125 C6.08605469 10.28773438 6.07445312 11.19265625 6.0625 12.125 C6.05347656 13.03507812 6.04445313 13.94515625 6.03515625 14.8828125 C6.02355469 15.58148438 6.01195312 16.28015625 6 17 C5.67 17 5.34 17 5 17 C5 15.02 5 13.04 5 11 C4.01 11.33 3.02 11.66 2 12 C2.04125 10.7625 2.0825 9.525 2.125 8.25 C2.13658291 4.98362038 1.8568702 2.7853053 0 0 Z " fill="#219AE4" transform="translate(536,402)"/>
<path d="M0 0 C5.20205809 0.66203909 5.20205809 0.66203909 10.1015625 -0.73828125 C10.4315625 0.25171875 10.7615625 1.24171875 11.1015625 2.26171875 C4.8315625 2.26171875 -1.4384375 2.26171875 -7.8984375 2.26171875 C-7.8984375 1.60171875 -7.8984375 0.94171875 -7.8984375 0.26171875 C-5.13774489 -1.11862755 -2.96612735 -0.41525783 0 0 Z " fill="#1E7FC7" transform="translate(542.8984375,564.73828125)"/>
<path d="M0 0 C0.66 1.32 1.32 2.64 2 4 C1.01 5.485 1.01 5.485 0 7 C0.66 7.66 1.32 8.32 2 9 C-1.87132028 8.42647107 -4.08172796 6.51295648 -7 4 C-6.67 3.34 -6.34 2.68 -6 2 C-5.34 2.66 -4.68 3.32 -4 4 C-2.68 2.68 -1.36 1.36 0 0 Z " fill="#1F92DD" transform="translate(737,448)"/>
<path d="M0 0 C6.86026341 6.49919692 6.86026341 6.49919692 7.11328125 11.02734375 C7.12377975 13.01855955 7.06633794 15.00986185 7 17 C6.67 17 6.34 17 6 17 C6 15.35 6 13.7 6 12 C5.34 12 4.68 12 4 12 C2.66666667 8 1.33333333 4 0 0 Z " fill="#219DE3" transform="translate(766,415)"/>
<path d="M0 0 C5.75 0.75 5.75 0.75 8 3 C8.33 3.99 8.66 4.98 9 6 C7.68 6.99 6.36 7.98 5 9 C3.79371992 6.66785852 2.8345262 4.50357861 2 2 C1.34 1.34 0.68 0.68 0 0 Z " fill="#219FE0" transform="translate(654,233)"/>
<path d="M0 0 C0.33 1.32 0.66 2.64 1 4 C0.34 4 -0.32 4 -1 4 C-1.66 4.66 -2.32 5.32 -3 6 C-3.66 5.01 -4.32 4.02 -5 3 C-5.99 2.34 -6.98 1.68 -8 1 C-4.93251126 -0.86240388 -3.40254489 -1.2151946 0 0 Z " fill="#219EDD" transform="translate(364,236)"/>
<path d="M0 0 C0.99 0.33 1.98 0.66 3 1 C1.63875 1.8353125 1.63875 1.8353125 0.25 2.6875 C-2.86553145 4.90432045 -4.75175763 6.94881393 -7 10 C-7.66 10.66 -8.32 11.32 -9 12 C-9.625 10.1875 -9.625 10.1875 -10 8 C-7.85672716 4.78509073 -6.30478872 3.85390587 -3 2 C-2.01 1.34 -1.02 0.68 0 0 Z " fill="#171A1E" transform="translate(394,757)"/>
<path d="M0 0 C0.66 0.33 1.32 0.66 2 1 C1.34 3.31 0.68 5.62 0 8 C0.66 8 1.32 8 2 8 C1.67 9.32 1.34 10.64 1 12 C0.34 12 -0.32 12 -1 12 C-1.99 12.33 -2.98 12.66 -4 13 C-3.52343588 11.20763933 -3.04366502 9.41613103 -2.5625 7.625 C-2.29566406 6.62726562 -2.02882813 5.62953125 -1.75390625 4.6015625 C-1 2 -1 2 0 0 Z " fill="#2098DD" transform="translate(647,555)"/>
<path d="M0 0 C5.92863717 1.16651426 11.38798394 2.75519358 17 5 C13.296875 6.125 13.296875 6.125 10.625 5 C7.37019007 3.76007241 5.34277638 4.22261014 2 5 C2 3.68 2 2.36 2 1 C1.34 0.67 0.68 0.34 0 0 Z " fill="#21ABE9" transform="translate(574,205)"/>
<path d="M0 0 C0.33 0.66 0.66 1.32 1 2 C0.34 2 -0.32 2 -1 2 C-1.33 3.32 -1.66 4.64 -2 6 C-3.65 5.67 -5.3 5.34 -7 5 C-7 4.34 -7 3.68 -7 3 C-7.66 2.67 -8.32 2.34 -9 2 C-6.03 1.34 -3.06 0.68 0 0 Z " fill="#1E88D0" transform="translate(609,338)"/>
<path d="M0 0 C-0.33 0.99 -0.66 1.98 -1 3 C-8.42857143 3.28571429 -8.42857143 3.28571429 -12 1 C-8.00439392 -1.83022097 -4.57262677 -0.76210446 0 0 Z " fill="#21A0E1" transform="translate(457,205)"/>
<path d="M0 0 C0.66 0.99 1.32 1.98 2 3 C0.75579353 3.5345256 -0.49570936 4.05208611 -1.75 4.5625 C-2.44609375 4.85253906 -3.1421875 5.14257812 -3.859375 5.44140625 C-6.30012784 6.07831803 -7.6403655 5.80248831 -10 5 C-9 3 -9 3 -6.93359375 2.1484375 C-5.69802734 1.76558594 -5.69802734 1.76558594 -4.4375 1.375 C-3.61121094 1.11460937 -2.78492188 0.85421875 -1.93359375 0.5859375 C-1.29550781 0.39257812 -0.65742187 0.19921875 0 0 Z " fill="#191B1F" transform="translate(835,821)"/>
<path d="M0 0 C0.33 0.66 0.66 1.32 1 2 C1.66 2 2.32 2 3 2 C1.27137715 6.55727842 -1.81669715 7.90834857 -6 10 C-4.34832443 6.4213696 -2.21713508 3.25179812 0 0 Z " fill="#209ADE" transform="translate(642,568)"/>
<path d="M0 0 C6.0546875 -0.1953125 6.0546875 -0.1953125 8 0 C8.66 0.66 9.32 1.32 10 2 C9 3 9 3 6.93359375 3.09765625 C6.10988281 3.08605469 5.28617187 3.07445312 4.4375 3.0625 C3.61121094 3.05347656 2.78492188 3.04445313 1.93359375 3.03515625 C1.29550781 3.02355469 0.65742188 3.01195312 0 3 C0 2.01 0 1.02 0 0 Z " fill="#2D2E31" transform="translate(303,754)"/>
<path d="M0 0 C2 3 2 3 2 7 C0.68 7 -0.64 7 -2 7 C-2.33 8.65 -2.66 10.3 -3 12 C-3.88336837 9.5332355 -4.1312406 8.36140628 -3.22265625 5.859375 C-2.83980469 5.16328125 -2.45695312 4.4671875 -2.0625 3.75 C-1.68222656 3.04359375 -1.30195313 2.3371875 -0.91015625 1.609375 C-0.60980469 1.07828125 -0.30945313 0.5471875 0 0 Z " fill="#1F97DF" transform="translate(403,530)"/>
<path d="M0 0 C1.65 0 3.3 0 5 0 C6.4216319 3.3171411 7.39009109 6.44219804 8 10 C5.11252827 7.11252827 2.37083686 4.34072467 0 1 C0 0.67 0 0.34 0 0 Z " fill="#131923" transform="translate(592,398)"/>
<path d="M0 0 C1.24964981 3.74894943 0.75598428 6.15135277 0 10 C-0.99 11.485 -0.99 11.485 -2 13 C-2.66 13 -3.32 13 -4 13 C-3.52343588 11.20763933 -3.04366502 9.41613103 -2.5625 7.625 C-2.29566406 6.62726562 -2.02882813 5.62953125 -1.75390625 4.6015625 C-1 2 -1 2 0 0 Z " fill="#16191C" transform="translate(504,763)"/>
<path d="M0 0 C2.475 0.99 2.475 0.99 5 2 C5 2.99 5 3.98 5 5 C-0.53846154 5.36923077 -0.53846154 5.36923077 -2.875 3.5 C-3.24625 3.005 -3.6175 2.51 -4 2 C-2.68 2 -1.36 2 0 2 C0 1.34 0 0.68 0 0 Z " fill="#1D7FC6" transform="translate(598,563)"/>
<path d="M0 0 C0 3.3 0 6.6 0 10 C-0.33 10 -0.66 10 -1 10 C-1 8.02 -1 6.04 -1 4 C-2.98 5.32 -4.96 6.64 -7 8 C-7.66 7.67 -8.32 7.34 -9 7 C-7.69013727 5.83037314 -6.3770374 4.66437056 -5.0625 3.5 C-3.96615234 2.52546875 -3.96615234 2.52546875 -2.84765625 1.53125 C-1 0 -1 0 0 0 Z " fill="#070809" transform="translate(322,814)"/>
<path d="M0 0 C0.99 0 1.98 0 3 0 C4.76462683 3.08809695 5 4.23312136 5 8 C5.66 8.33 6.32 8.66 7 9 C6.01 9 5.02 9 4 9 C0 2.25 0 2.25 0 0 Z " fill="#181A1C" transform="translate(566,792)"/>
<path d="M0 0 C0.66 0.33 1.32 0.66 2 1 C1.55966813 6.19591612 1.11696661 9.66335081 -2 14 C-3 12 -3 12 -2.125 9.25 C-1.75375 8.1775 -1.3825 7.105 -1 6 C-0.63079809 4.00630969 -0.28674418 2.00720923 0 0 Z " fill="#2097E2" transform="translate(771,435)"/>
<path d="M0 0 C4.52580957 4.29951909 7.40510265 7.60485349 8 14 C5.50447597 11.72402354 3.93377014 9.39278822 2.3125 6.4375 C1.87550781 5.65246094 1.43851563 4.86742187 0.98828125 4.05859375 C0 2 0 2 0 0 Z " fill="#20A5E8" transform="translate(562,382)"/>
<path d="M0 0 C0.99 0.33 1.98 0.66 3 1 C2.34 1 1.68 1 1 1 C1 1.66 1 2.32 1 3 C1.99 3 2.98 3 4 3 C3.67 3.99 3.34 4.98 3 6 C2.34 5.67 1.68 5.34 1 5 C-0.65 6.32 -2.3 7.64 -4 9 C-2.94124926 5.59687262 -1.99097846 2.98646769 0 0 Z " fill="#1F98DF" transform="translate(433,478)"/>
<path d="M0 0 C0.99 0.33 1.98 0.66 3 1 C4.00496852 4.01490557 4.10335303 6.04181692 4.0625 9.1875 C4.05347656 10.08855469 4.04445313 10.98960937 4.03515625 11.91796875 C4.02355469 12.60503906 4.01195312 13.29210937 4 14 C3.01 14 2.02 14 1 14 C1.09539063 13.40832031 1.19078125 12.81664062 1.2890625 12.20703125 C1.94154485 7.55619775 2.34537279 4.27685626 0 0 Z " fill="#1C82C6" transform="translate(524,316)"/>
<path d="M0 0 C2.54384726 1.27192363 2.69368156 2.19948469 3.6875 4.8125 C3.95949219 5.49957031 4.23148437 6.18664062 4.51171875 6.89453125 C5.06812731 9.29376496 4.77364938 10.6894364 4 13 C4 12.34 4 11.68 4 11 C3.34 11 2.68 11 2 11 C1.34 7.37 0.68 3.74 0 0 Z " fill="#0C0D0E" transform="translate(466,789)"/>
<path d="M0 0 C1.26457031 0.12761719 2.52914062 0.25523437 3.83203125 0.38671875 C5.74048828 0.56654297 5.74048828 0.56654297 7.6875 0.75 C8.66332031 0.85699219 9.63914062 0.96398437 10.64453125 1.07421875 C10.64453125 1.40421875 10.64453125 1.73421875 10.64453125 2.07421875 C2.22953125 2.56921875 2.22953125 2.56921875 -6.35546875 3.07421875 C-3.35546875 0.07421875 -3.35546875 0.07421875 0 0 Z " fill="#EFEEEF" transform="translate(810.35546875,821.92578125)"/>
<path d="M0 0 C1.4370809 -0.05422947 2.87475462 -0.09289723 4.3125 -0.125 C5.11300781 -0.14820313 5.91351563 -0.17140625 6.73828125 -0.1953125 C9 0 9 0 12 2 C9.51599398 3.24200301 8.17792364 2.98221651 5.4375 2.6875 C4.63183594 2.60886719 3.82617188 2.53023437 2.99609375 2.44921875 C2.33738281 2.30097656 1.67867188 2.15273438 1 2 C0.67 1.34 0.34 0.68 0 0 Z " fill="#2199E2" transform="translate(506,670)"/>
<path d="M0 0 C0 3.3 0 6.6 0 10 C-0.66 10 -1.32 10 -2 10 C-2.33 7.03 -2.66 4.06 -3 1 C-1 0 -1 0 0 0 Z " fill="#111921" transform="translate(315,463)"/>
<path d="M0 0 C0.99 0 1.98 0 3 0 C3 3.3 3 6.6 3 10 C2.01 9.34 1.02 8.68 0 8 C-0.40843923 5.28796348 -0.13336867 2.7562858 0 0 Z " fill="#1E81C4" transform="translate(771,427)"/>
<path d="M0 0 C1.75570312 0.17982422 1.75570312 0.17982422 3.546875 0.36328125 C4.43890625 0.47027344 5.3309375 0.57726562 6.25 0.6875 C6.25 1.0175 6.25 1.3475 6.25 1.6875 C-2.165 2.1825 -2.165 2.1825 -10.75 2.6875 C-6.19274358 -0.73044232 -5.38707547 -0.5925783 0 0 Z " fill="#EFEEEF" transform="translate(585.75,822.3125)"/>
<path d="M0 0 C1.9375 0.375 1.9375 0.375 4 1 C4.33 1.66 4.66 2.32 5 3 C7.02463255 3.65213292 7.02463255 3.65213292 9 4 C8.67 4.99 8.34 5.98 8 7 C5.36 5.68 2.72 4.36 0 3 C0 2.01 0 1.02 0 0 Z " fill="#1C1E20" transform="translate(420,736)"/>
<path d="M0 0 C3 1.8125 3 1.8125 6 4 C6 4.99 6 5.98 6 7 C2.34683329 5.75023244 1.21934164 5.32901247 -1 2 C-0.67 1.34 -0.34 0.68 0 0 Z " fill="#1F82C9" transform="translate(406,557)"/>
<path d="M0 0 C0.66 0 1.32 0 2 0 C2.66 3.63 3.32 7.26 4 11 C0.02040816 7.02040816 0.02040816 7.02040816 -0.0625 2.875 C-0.041875 1.92625 -0.02125 0.9775 0 0 Z " fill="#2096DE" transform="translate(693,507)"/>
<path d="M0 0 C2.31 0.66 4.62 1.32 7 2 C7 2.66 7 3.32 7 4 C0.25 4.125 0.25 4.125 -2 3 C-1 1 -1 1 0 0 Z " fill="#1E82CB" transform="translate(669,391)"/>
<path d="M0 0 C0.99 0.33 1.98 0.66 3 1 C2.34 2.98 1.68 4.96 1 7 C0.01 7 -0.98 7 -2 7 C-1.42415568 4.61435923 -0.77772405 2.33317216 0 0 Z " fill="#17191B" transform="translate(514,735)"/>
<path d="M0 0 C0.66 0.33 1.32 0.66 2 1 C-0.475 4.465 -0.475 4.465 -3 8 C-4.33332095 5.3333581 -3.67102033 3.83319697 -3 1 C-2.01 0.67 -1.02 0.34 0 0 Z " fill="#2098DC" transform="translate(678,544)"/>
<path d="M0 0 C0.33 0.66 0.66 1.32 1 2 C1.99 2.33 2.98 2.66 4 3 C1.69 4.32 -0.62 5.64 -3 7 C-2.25 2.25 -2.25 2.25 0 0 Z " fill="#1D82CB" transform="translate(492,359)"/>
<path d="M0 0 C0 0.99 0 1.98 0 3 C-1.98 3.66 -3.96 4.32 -6 5 C-6.66 4.34 -7.32 3.68 -8 3 C-2.25 0 -2.25 0 0 0 Z " fill="#17191B" transform="translate(755,819)"/>
<path d="M0 0 C0.33 0.99 0.66 1.98 1 3 C1.66 3 2.32 3 3 3 C2.67 4.98 2.34 6.96 2 9 C1.01 9 0.02 9 -1 9 C-0.67 6.03 -0.34 3.06 0 0 Z " fill="#1F8CCA" transform="translate(316,462)"/>
<path d="M0 0 C2.475 0.495 2.475 0.495 5 1 C4.34 2.98 3.68 4.96 3 7 C2.01 6.67 1.02 6.34 0 6 C0 4.02 0 2.04 0 0 Z " fill="#2090DA" transform="translate(515,423)"/>
<path d="M0 0 C1.32 0 2.64 0 4 0 C4.33 0.99 4.66 1.98 5 3 C4 4 4 4 1.4375 4.0625 C0.2309375 4.0315625 0.2309375 4.0315625 -1 4 C-0.67 2.68 -0.34 1.36 0 0 Z " fill="#1D80CA" transform="translate(659,391)"/>
<path d="M0 0 C0.33 0.99 0.66 1.98 1 3 C-1.875 3.625 -1.875 3.625 -5 4 C-5.66 3.34 -6.32 2.68 -7 2 C-4.69 1.34 -2.38 0.68 0 0 Z " fill="#191A1C" transform="translate(604,822)"/>
<path d="M0 0 C2.31 0.33 4.62 0.66 7 1 C6.67 1.99 6.34 2.98 6 4 C3.69 3.34 1.38 2.68 -1 2 C-0.67 1.34 -0.34 0.68 0 0 Z " fill="#242628" transform="translate(726,768)"/>
<path d="M0 0 C1.65 0.33 3.3 0.66 5 1 C3.1875 3 3.1875 3 1 5 C0.01 5 -0.98 5 -2 5 C-1.34 3.35 -0.68 1.7 0 0 Z " fill="#1D87CF" transform="translate(666,339)"/>
</svg>
