<?xml version="1.0" encoding="UTF-8"?>
<svg version="1.1" xmlns="http://www.w3.org/2000/svg" width="1024" height="1024">
<path d="M0 0 C1.51025278 0.00890117 3.02050672 0.01760665 4.53076172 0.02612305 C62.13595384 0.43725594 116.83037586 12.59455598 166.984375 41.3046875 C169.40470666 42.67393616 171.80737152 43.98554442 174.3125 45.1875 C174.3125 45.8475 174.3125 46.5075 174.3125 47.1875 C175.02277344 47.44402344 175.73304688 47.70054687 176.46484375 47.96484375 C194.94211004 55.89815561 211.17426381 72.44992415 225.8671875 85.96484375 C227.97814126 87.88358606 230.12883986 89.72804867 232.3125 91.5625 C242.23684971 100.23367317 250.38046325 110.7263671 258.3125 121.1875 C258.76093262 121.77370117 259.20936523 122.35990234 259.67138672 122.96386719 C279.18831116 148.5600641 294.04827652 176.68110354 304.3125 207.1875 C304.78526367 208.56736084 304.78526367 208.56736084 305.26757812 209.97509766 C315.87872133 241.31562971 320.54424769 274.170235 320.5 307.1875 C320.49959213 308.34537521 320.49959213 308.34537521 320.49917603 309.52664185 C320.35675386 398.52454573 320.35675386 398.52454573 293.9765625 428.875 C287.50200719 434.88550868 281.36743341 437.35088912 272.625 438.00390625 C270.13304449 438.20174731 267.74627598 438.61961894 265.3125 439.1875 C265.3125 438.1975 265.3125 437.2075 265.3125 436.1875 C264.58208496 436.06673096 263.85166992 435.94596191 263.09912109 435.8215332 C254.40364293 433.84307195 246.29091968 427.98185552 238.6875 423.5 C237.68332031 422.91927734 236.67914062 422.33855469 235.64453125 421.74023438 C234.69707031 421.18271484 233.74960937 420.62519531 232.7734375 420.05078125 C231.48638916 419.29728394 231.48638916 419.29728394 230.17333984 418.52856445 C229.5592627 418.08601318 228.94518555 417.64346191 228.3125 417.1875 C228.3125 416.5275 228.3125 415.8675 228.3125 415.1875 C227.61125 415.08824219 226.91 414.98898437 226.1875 414.88671875 C218.27487778 412.96231742 210.84936431 407.91457467 206.3125 401.1875 C203.5698343 395.7021686 206.32208352 387.64577986 208.08984375 382.13671875 C208.80143642 380.04658001 209.52169899 377.95937562 210.25 375.875 C213.24427553 366.97190653 215.6389479 358.60039063 216.3125 349.1875 C217.3025 349.1875 218.2925 349.1875 219.3125 349.1875 C219.29509766 348.14203003 219.29509766 348.14203003 219.27734375 347.07543945 C219.18354285 336.48515011 219.75147066 325.94701438 220.3125 315.375 C220.40915906 313.50717721 220.50551542 311.63933873 220.6015625 309.77148438 C220.83505675 305.24330136 221.07263083 300.71534961 221.3125 296.1875 C220.6525 296.1875 219.9925 296.1875 219.3125 296.1875 C219.34730469 295.27871094 219.34730469 295.27871094 219.3828125 294.3515625 C219.49796034 289.00541279 219.05751483 284.22978752 217.875 279.0234375 C217.19043805 275.57210431 216.82831524 272.1214006 216.4375 268.625 C215.7703519 263.3407635 214.74834493 259.25203611 212.29882812 254.55712891 C211.18328417 251.87706216 210.8377148 249.5026461 210.4765625 246.625 C209.47118327 240.20472632 207.38139358 234.75970917 204.6875 228.875 C204.23947021 227.875896 203.79144043 226.87679199 203.32983398 225.84741211 C194.48325492 206.34025688 183.58191124 189.19611926 169.3125 173.1875 C168.81621094 172.62417969 168.31992187 172.06085938 167.80859375 171.48046875 C166.31818974 169.79185244 164.81790856 168.11274438 163.3125 166.4375 C162.62704102 165.66647949 162.62704102 165.66647949 161.92773438 164.87988281 C159.72921838 162.47206282 158.46572247 161.23857416 155.3125 160.1875 C155.044375 159.61 154.77625 159.0325 154.5 158.4375 C152.79907425 155.21469331 150.15409859 153.35983874 147.3125 151.1875 C146.39186768 150.4761792 146.39186768 150.4761792 145.45263672 149.75048828 C129.55561012 137.64657537 112.70083922 127.22300319 94.375 119.25 C93.51092529 118.87206299 92.64685059 118.49412598 91.7565918 118.10473633 C86.32653509 115.81269679 81.10130339 114.30320277 75.3125 113.1875 C75.3125 112.5275 75.3125 111.8675 75.3125 111.1875 C74.71824219 111.07792969 74.12398437 110.96835937 73.51171875 110.85546875 C68.90455652 109.97416089 64.38846752 108.96870044 59.875 107.6875 C55.12984543 106.34912307 50.39097954 105.41267456 45.52734375 104.6171875 C43.3125 104.1875 43.3125 104.1875 41.3125 103.1875 C41.3125 103.8475 41.3125 104.5075 41.3125 105.1875 C40.6525 105.1875 39.9925 105.1875 39.3125 105.1875 C39.3125 104.5275 39.3125 103.8675 39.3125 103.1875 C16.86304295 101.21871443 -5.18317881 101.19911475 -27.6875 102.1875 C-28.0175 103.1775 -28.3475 104.1675 -28.6875 105.1875 C-29.89921875 105.33445312 -31.1109375 105.48140625 -32.359375 105.6328125 C-68.46904323 110.33121823 -103.97800447 126.84297246 -130.4609375 152.109375 C-132.99305441 154.47268412 -135.66074183 156.59907843 -138.375 158.75 C-142.53396975 162.09602666 -146.02260691 165.58336759 -149.34765625 169.75390625 C-149.78980469 170.22699219 -150.23195313 170.70007813 -150.6875 171.1875 C-151.3475 171.1875 -152.0075 171.1875 -152.6875 171.1875 C-152.91566406 171.73019531 -153.14382813 172.27289063 -153.37890625 172.83203125 C-155.06944628 175.87500331 -157.32081018 178.29386045 -159.625 180.875 C-173.47606948 196.87149218 -193.6875 225.28744965 -193.6875 247.1875 C-193.6875 247.8475 -193.6875 248.5075 -193.6875 249.1875 C-194.6775 249.1875 -195.6675 249.1875 -196.6875 249.1875 C-196.85185547 250.13496094 -196.85185547 250.13496094 -197.01953125 251.1015625 C-197.9537512 256.37268972 -198.9973886 261.59292512 -200.1875 266.8125 C-201.95218186 274.87449834 -202.84377377 282.98846626 -203.6875 291.1875 C-204.3475 291.1875 -205.0075 291.1875 -205.6875 291.1875 C-204.4513895 322.67565617 -203.06911259 354.15795624 -191.375 383.8125 C-187.03608527 394.97029168 -187.03608527 394.97029168 -188.6875 400.1875 C-192.82356105 408.30115232 -201.90641515 411.96272119 -209.57226562 416.03759766 C-212.92337067 417.8593549 -216.17907383 419.83107602 -219.4375 421.8125 C-220.67036237 422.55764014 -221.90343178 423.30243784 -223.13671875 424.046875 C-224.02496338 424.58344727 -224.02496338 424.58344727 -224.93115234 425.13085938 C-227.6935872 426.79277459 -230.46971099 428.43066576 -233.25 430.0625 C-234.15878906 430.59617187 -235.06757813 431.12984375 -236.00390625 431.6796875 C-243.82796548 436.07573825 -251.60874027 439.5766473 -260.6875 437.1875 C-260.6875 437.8475 -260.6875 438.5075 -260.6875 439.1875 C-261.3475 439.1875 -262.0075 439.1875 -262.6875 439.1875 C-263.0175 438.5275 -263.3475 437.8675 -263.6875 437.1875 C-265.18898414 436.45870945 -266.71448756 435.77905797 -268.25 435.125 C-279.21966807 429.74188186 -284.73506144 419.54031281 -288.67333984 408.3984375 C-299.00737605 377.92615708 -299.00737605 377.92615708 -298.6875 369.1875 C-299.3475 369.1875 -300.0075 369.1875 -300.6875 369.1875 C-301.0175 364.2375 -301.3475 359.2875 -301.6875 354.1875 C-302.3475 354.1875 -303.0075 354.1875 -303.6875 354.1875 C-303.67589844 353.58164062 -303.66429687 352.97578125 -303.65234375 352.3515625 C-303.64332031 351.51367188 -303.63429688 350.67578125 -303.625 349.8125 C-303.60759766 348.59433594 -303.60759766 348.59433594 -303.58984375 347.3515625 C-303.67071413 344.73136214 -303.88883933 342.22333511 -304.1809082 339.62255859 C-304.70957573 334.42630517 -304.86428004 329.28281165 -304.890625 324.0625 C-304.90121445 322.65767616 -304.90121445 322.65767616 -304.91201782 321.22447205 C-305.14226514 281.67448609 -305.14226514 281.67448609 -301.6875 262.1875 C-301.48882324 261.0521582 -301.29014648 259.91681641 -301.08544922 258.74707031 C-296.23399356 231.84783827 -288.24737085 206.45144176 -277.91992188 181.20263672 C-276.15071819 176.87425608 -274.41841165 172.53130481 -272.6875 168.1875 C-271.6975 168.1875 -270.7075 168.1875 -269.6875 168.1875 C-269.5740625 167.300625 -269.460625 166.41375 -269.34375 165.5 C-263.29837555 134.9852528 -224.70286892 97.50459432 -201.984375 78.1484375 C-200.1828891 76.61043423 -198.40827876 75.05273846 -196.640625 73.4765625 C-188.12051658 65.93821527 -179.19883968 59.41296106 -169.6875 53.1875 C-168.32189941 52.28354492 -168.32189941 52.28354492 -166.92871094 51.36132812 C-163.98181523 49.41502454 -161.02417874 47.48622094 -158.0625 45.5625 C-157.12599609 44.94584473 -156.18949219 44.32918945 -155.22460938 43.69384766 C-154.33322266 43.1219873 -153.44183594 42.55012695 -152.5234375 41.9609375 C-151.34080322 41.19402588 -151.34080322 41.19402588 -150.13427734 40.41162109 C-147.32049699 39.00388864 -144.79649042 38.56395513 -141.6875 38.1875 C-141.3575 37.1975 -141.0275 36.2075 -140.6875 35.1875 C-138.4140625 33.86328125 -138.4140625 33.86328125 -135.3125 32.5 C-134.12527344 31.97792969 -132.93804687 31.45585937 -131.71484375 30.91796875 C-131.06370605 30.63872559 -130.41256836 30.35948242 -129.74169922 30.07177734 C-127.63404715 29.16448999 -125.53792872 28.23346557 -123.44140625 27.30078125 C-110.80568097 21.75771194 -97.84840516 17.3133444 -84.6875 13.1875 C-83.98874756 12.96819824 -83.28999512 12.74889648 -82.57006836 12.52294922 C-78.49539498 11.29540992 -74.94599969 11.01368369 -70.6875 11.1875 C-70.3575 10.1975 -70.0275 9.2075 -69.6875 8.1875 C-64.550759 7.36719568 -59.41361847 6.54945282 -54.27612305 5.73388672 C-52.53545638 5.45721385 -50.79489288 5.179891 -49.05444336 4.90185547 C-44.03530113 4.10029744 -39.01448894 3.31127905 -33.99032593 2.54177856 C-32.53278703 2.3175433 -31.07570733 2.09028445 -29.61929321 1.8588562 C-19.67735257 0.28751086 -10.0317498 -0.0986438 0 0 Z M-29.64160156 21.46362305 C-32.46769594 22.13526218 -35.17459098 22.53736737 -38.0625 22.8125 C-41.49246093 22.78226339 -41.49246093 22.78226339 -42.6875 24.1875 C-45.80536005 24.63505772 -48.92202977 25.00704893 -52.05273438 25.34960938 C-55.63796644 25.78067833 -58.58713389 26.28264782 -61.6875 28.1875 C-61.3575 28.8475 -61.0275 29.5075 -60.6875 30.1875 C-61.3475 30.1875 -62.0075 30.1875 -62.6875 30.1875 C-62.6875 29.5275 -62.6875 28.8675 -62.6875 28.1875 C-71.34282405 29.47181702 -79.46086255 31.79152889 -87.75 34.5625 C-88.39159058 34.77559814 -89.03318115 34.98869629 -89.69421387 35.20825195 C-112.35807307 42.01291397 -112.35807307 42.01291397 -131.6875 54.1875 C-130.6975 55.1775 -129.7075 56.1675 -128.6875 57.1875 C-131.6875 56.1875 -131.6875 56.1875 -133.6875 54.1875 C-145.85208969 60.91232757 -157.61728345 67.77050364 -168.6875 76.1875 C-169.81740904 77.0303493 -170.94762078 77.87279293 -172.078125 78.71484375 C-178.93785386 83.86632871 -185.38436548 89.36685297 -191.6875 95.1875 C-193.37399136 96.68863395 -195.06149713 98.18862899 -196.75 99.6875 C-205.18459493 107.30499355 -212.60344171 115.30395424 -219.6875 124.1875 C-220.59970476 125.28800086 -221.51384797 126.38689715 -222.4296875 127.484375 C-255.39829622 167.31821165 -276.86904598 216.89833017 -283.6875 268.1875 C-283.80174316 269.03844238 -283.91598633 269.88938477 -284.03369141 270.76611328 C-289.59151229 314.82522369 -289.38654061 376.42820439 -264.875 415.1875 C-262.62671877 417.80759002 -261.01480402 418.73252419 -257.5625 419 C-246.46347727 417.89009773 -236.76903894 411.04845521 -227.52148438 405.30859375 C-223.76195305 403.01043509 -219.9131657 400.86431093 -216.078125 398.6953125 C-212.97078048 396.85409439 -212.97078048 396.85409439 -210.6875 394.1875 C-210.05689689 387.86090577 -211.4551223 382.83984871 -213.4375 376.875 C-218.26100135 361.49858078 -221.03196699 346.32354163 -222.64916992 330.28637695 C-222.75720947 329.2624585 -222.86524902 328.23854004 -222.9765625 327.18359375 C-223.11118896 325.80965454 -223.11118896 325.80965454 -223.24853516 324.40795898 C-223.51217497 321.99179375 -223.51217497 321.99179375 -225.6875 320.1875 C-228.33537789 319.94206859 -230.88653823 319.81400614 -233.5390625 319.7734375 C-234.31309418 319.75407135 -235.08712585 319.7347052 -235.88461304 319.7147522 C-238.36046275 319.6549017 -240.83635883 319.60854989 -243.3125 319.5625 C-244.98960377 319.52432518 -246.66668784 319.48527375 -248.34375 319.4453125 C-252.45817353 319.34919591 -256.57268886 319.26518561 -260.6875 319.1875 C-262.51119852 314.95884446 -263.11746927 311.83116814 -262.6875 307.1875 C-260.85634793 304.57156847 -259.77781634 304.21760545 -256.6875 303.1875 C-254.24969623 303.03480819 -251.83466099 302.93067303 -249.39453125 302.87109375 C-248.68850266 302.85031265 -247.98247406 302.82953156 -247.25505066 302.80812073 C-245.00346449 302.74282509 -242.75176338 302.68383353 -240.5 302.625 C-238.9719934 302.58179575 -237.44399836 302.53818084 -235.91601562 302.49414062 C-232.17329438 302.38716426 -228.4304577 302.28584078 -224.6875 302.1875 C-224.54501831 301.05042603 -224.54501831 301.05042603 -224.3996582 299.89038086 C-219.62340914 262.29548989 -211.85188985 224.84921132 -191.6875 192.1875 C-191.34106445 191.61193359 -190.99462891 191.03636719 -190.63769531 190.44335938 C-186.07450451 182.87004911 -181.11235583 175.97305495 -175.22924805 169.36108398 C-173.0988785 166.95572893 -171.71697704 165.27593112 -170.6875 162.1875 C-169.7903125 161.754375 -169.7903125 161.754375 -168.875 161.3125 C-165.99649659 159.83212682 -164.58650001 157.76471429 -162.6875 155.1875 C-164.30394416 151.2631847 -167.00231352 148.47556605 -169.875 145.4375 C-170.86595291 144.36334351 -171.85683828 143.28912471 -172.84765625 142.21484375 C-174.51548872 140.42252128 -176.20161451 138.67338549 -177.93359375 136.94140625 C-181.90319983 132.83975506 -183.48671238 129.92015638 -183.8125 124.16796875 C-183.6875 122.1875 -183.6875 122.1875 -182.6875 119.1875 C-178.9225613 117.93252043 -176.65741382 117.66685556 -172.6875 118.1875 C-169.62998902 120.11162329 -167.22285723 122.63087299 -164.6875 125.1875 C-163.64165174 126.21068596 -162.59470136 127.23274613 -161.546875 128.25390625 C-152.91627006 136.72995988 -152.91627006 136.72995988 -151.6875 139.1875 C-146.77500187 138.72405678 -144.39706564 137.52832599 -140.75 134.25 C-101.16845805 100.52056774 -51.73677042 85.20472794 -0.6875 81.1875 C-0.67291748 80.27460205 -0.65833496 79.3617041 -0.64331055 78.42114258 C-0.58209205 75.01951389 -0.50791127 71.61867319 -0.42504883 68.2175293 C-0.39188741 66.74823578 -0.36382822 65.27881756 -0.34106445 63.80932617 C-0.30735481 61.69135632 -0.25503567 59.57452005 -0.19921875 57.45703125 C-0.17303467 56.18448486 -0.14685059 54.91193848 -0.11987305 53.60083008 C0.33957967 49.97372202 1.0385118 48.03089247 3.3125 45.1875 C6.79194998 44.2385591 9.16566297 43.81555286 12.625 44.9375 C14.3125 46.1875 14.3125 46.1875 16.3125 49.1875 C16.55215047 51.65134903 16.68492 54.01290576 16.7265625 56.48046875 C16.75561172 57.53951164 16.75561172 57.53951164 16.7852478 58.61994934 C16.84495224 60.87151061 16.8913914 63.12312328 16.9375 65.375 C16.97568829 66.90301689 17.01474052 68.43101245 17.0546875 69.95898438 C17.15064596 73.70164935 17.23471011 77.4444151 17.3125 81.1875 C18.10422607 81.2376123 18.89595215 81.28772461 19.71166992 81.33935547 C23.30839253 81.57184424 26.90414056 81.81703634 30.5 82.0625 C31.74587891 82.14113281 32.99175781 82.21976563 34.27539062 82.30078125 C35.47744141 82.38457031 36.67949219 82.46835937 37.91796875 82.5546875 C39.02293701 82.62800293 40.12790527 82.70131836 41.26635742 82.77685547 C44.28509016 83.18380493 46.5181118 84.02111777 49.3125 85.1875 C51.24063328 85.59644646 53.17990725 85.95476938 55.125 86.2734375 C87.21624094 91.94231722 116.684826 105.44543193 143.3125 124.1875 C146.26627498 126.55730013 146.26627498 126.55730013 150.3125 126.1875 C150.6528125 127.0228125 150.6528125 127.0228125 151 127.875 C153.70090584 132.63373886 157.10261272 135.55010685 162.3125 137.1875 C162.3125 137.8475 162.3125 138.5075 162.3125 139.1875 C164.59169764 140.07493993 164.59169764 140.07493993 167.3125 140.1875 C169.59242347 138.45504438 169.59242347 138.45504438 171.5625 135.875 C172.33464844 134.96105469 173.10679687 134.04710937 173.90234375 133.10546875 C174.69769531 132.14253906 175.49304688 131.17960937 176.3125 130.1875 C177.90562965 128.34456763 179.50937025 126.51073951 181.125 124.6875 C181.83269531 123.8728125 182.54039062 123.058125 183.26953125 122.21875 C186.36184828 119.14417093 189.02184896 117.89258876 193.375 117.75 C197.3125 118.1875 197.3125 118.1875 199.375 120.25 C200.63879963 124.20990552 200.53412589 126.18328182 199.3125 130.1875 C196.51623373 134.34143895 192.82058007 137.71075324 189.21484375 141.15234375 C188.67512939 141.67417236 188.13541504 142.19600098 187.5793457 142.73364258 C186.50303577 143.76866063 185.4145907 144.79123749 184.31323242 145.79956055 C181.77411832 148.22886193 180.37222125 149.99563959 179.3203125 153.375 C179.02191422 156.426815 179.02191422 156.426815 181.5625 159.0625 C184.12891589 161.49322375 184.12891589 161.49322375 187.3125 161.1875 C187.61994141 162.16589844 187.61994141 162.16589844 187.93359375 163.1640625 C189.86169437 167.39168256 192.59836715 170.85441764 195.375 174.5625 C209.43239818 193.75242463 220.10840071 214.48035423 227.3125 237.1875 C227.52712891 237.84041016 227.74175781 238.49332031 227.96289062 239.16601562 C234.66058714 259.62333037 237.76608421 280.87802047 240.3125 302.1875 C252.1925 302.5175 264.0725 302.8475 276.3125 303.1875 C277.69476016 305.95202033 277.40775387 308.2336363 277.375 311.3125 C277.36597656 312.40820312 277.35695313 313.50390625 277.34765625 314.6328125 C277.33025391 315.89738281 277.33025391 315.89738281 277.3125 317.1875 C268.07674523 318.52740225 259.04440845 319.33973707 249.703125 319.25 C248.79320801 319.24548828 247.88329102 319.24097656 246.94580078 319.23632812 C244.73462749 319.22470566 242.52360197 319.20837081 240.3125 319.1875 C240.15599976 320.82271606 240.15599976 320.82271606 239.99633789 322.4909668 C237.80932106 344.80125354 234.90254503 365.54406124 226.94580078 386.60839844 C226.21959404 389.56585718 226.36457015 391.30682601 227.3125 394.1875 C229.71203836 396.33346355 229.71203836 396.33346355 232.9375 398.1875 C233.83251221 398.73966187 233.83251221 398.73966187 234.74560547 399.30297852 C253.88630072 412.43382826 253.88630072 412.43382826 275.3125 419.1875 C280.57835672 417.30683689 282.78434481 412.89604021 285.3125 408.1875 C286.66852112 404.95457235 287.7291721 401.66472362 288.75 398.3125 C289.19049683 396.89215454 289.19049683 396.89215454 289.63989258 395.44311523 C294.32091013 379.9510262 297.73241757 364.11365013 300.5625 348.1875 C300.71356201 347.34195557 300.86462402 346.49641113 301.02026367 345.62524414 C303.43695435 331.31729039 304.66812529 317.08982615 304.62817383 302.58300781 C304.62500025 300.18769241 304.64866471 297.79360329 304.67382812 295.3984375 C304.74269235 278.45340567 302.63636969 260.45733912 295.3515625 244.96875 C293.04058955 239.87731227 291.81517684 234.69572874 290.625 229.25 C290.20645414 227.38626237 289.78597829 225.52295678 289.36328125 223.66015625 C289.18450439 222.84812744 289.00572754 222.03609863 288.8215332 221.19946289 C288.37577946 219.13558204 288.37577946 219.13558204 287.3125 217.1875 C286.3225 217.1875 285.3325 217.1875 284.3125 217.1875 C284.62960937 215.91712891 284.62960937 215.91712891 284.953125 214.62109375 C287.66096065 188.74949009 255.73381679 149.00322844 240.19750977 129.76611328 C238.54647068 127.74440369 236.88468948 125.73209623 235.21875 123.72265625 C232.89336388 120.91628394 230.6768179 118.04886222 228.5 115.125 C225.7739975 111.57783132 222.74015744 108.74851115 219.3046875 105.89453125 C216.61116424 103.58655151 214.19245595 101.04884873 211.7578125 98.47265625 C210.38574261 96.9660036 210.38574261 96.9660036 208.3125 97.1875 C208.08175781 96.61257813 207.85101562 96.03765625 207.61328125 95.4453125 C205.12885042 91.13299712 200.76578393 88.45308583 196.89208984 85.42724609 C195.37075574 84.2332222 193.866617 83.01738806 192.36328125 81.80078125 C157.4239039 54.0192789 110.18398411 29.17322046 65.3125 24.1875 C63.96348872 24.02648461 62.61453411 23.86499409 61.265625 23.703125 C57.47021502 23.25774043 53.67157931 22.85235942 49.87084961 22.45535278 C48.22626294 22.28316869 46.58187473 22.10907252 44.93774414 21.93258667 C32.21471452 20.57582106 19.54544222 19.74183599 6.75341797 19.44458008 C3.91684963 19.37448974 1.08186602 19.27830915 -1.75390625 19.18164062 C-11.39402226 18.91092783 -20.24459569 19.20377791 -29.64160156 21.46362305 Z M285.3125 213.1875 C286.3125 215.1875 286.3125 215.1875 286.3125 215.1875 Z " fill="#06ECFE" transform="translate(503.6875,174.8125)"/>
<path d="M0 0 C1.11774307 -0.00570007 2.23548615 -0.01140015 3.38710022 -0.01727295 C5.73942126 -0.02667308 8.09175517 -0.03323695 10.4440918 -0.03710938 C14.02090525 -0.04683625 17.59714861 -0.07791654 21.17382812 -0.109375 C23.47004871 -0.11590447 25.76627335 -0.12115516 28.0625 -0.125 C29.64888527 -0.1435202 29.64888527 -0.1435202 31.26731873 -0.16241455 C40.52365898 -0.13494507 48.5128549 1.17173905 55.625 7.41015625 C60.54304479 13.39790839 60.61093022 19.18006177 60.75 26.59765625 C60.78230209 27.76279251 60.81460419 28.92792877 60.84788513 30.12837219 C60.95109213 34.15312024 61.02808361 38.17768918 61.09765625 42.203125 C61.11108315 42.94574333 61.12451004 43.68836166 61.13834381 44.45348358 C61.34749791 56.06439022 61.49677515 67.67578695 61.62988281 79.28778076 C61.68112924 83.69383729 61.73626328 88.09984527 61.79101562 92.50585938 C61.89691376 101.07157294 61.99869425 109.6373285 62.09765625 118.203125 C63.28246582 118.04231445 64.46727539 117.88150391 65.68798828 117.71582031 C71.77629562 116.95747891 77.84383265 116.97895777 83.97265625 116.953125 C85.18824219 116.9325 86.40382813 116.911875 87.65625 116.890625 C96.15213564 116.8539653 103.99448808 117.29671421 111.09765625 122.328125 C114.11116882 126.66004932 115.57780649 130.96970821 114.7890625 136.28125 C112.27380376 144.21759435 105.59806387 149.7646706 99.83203125 155.44140625 C97.47118841 157.83946958 95.2923449 160.3756181 93.09375 162.921875 C86.42466434 170.54368719 79.45179624 177.90818751 72.5793457 185.34643555 C69.24370285 188.95767129 65.91759804 192.5774542 62.59765625 196.203125 C61.23761554 197.6869848 59.8773949 199.17067941 58.51708984 200.65429688 C57.53778097 201.72287883 56.55897017 202.79191738 55.58056641 203.86132812 C45.57222119 214.79550019 45.57222119 214.79550019 40.84765625 219.390625 C37.98030748 222.18702906 35.57573471 225.13424622 33.16015625 228.328125 C28.98291758 233.69649707 24.14942961 237.17723832 18.09765625 240.203125 C11.63638816 240.75069009 8.47711456 239.78943054 3.09765625 236.203125 C3.09765625 235.543125 3.09765625 234.883125 3.09765625 234.203125 C2.20820313 234.06583984 2.20820313 234.06583984 1.30078125 233.92578125 C-1.44802031 233.02413535 -2.34736077 231.87932962 -4.15234375 229.640625 C-6.62151479 226.68078536 -9.14721909 223.89951638 -11.90234375 221.203125 C-14.48159435 218.66340314 -16.92451764 216.07861186 -19.27734375 213.328125 C-22.01855824 210.13629991 -24.90920263 207.16009523 -27.90234375 204.203125 C-39.34991214 192.86041983 -39.34991214 192.86041983 -40.90234375 188.203125 C-42.21767785 187.50161348 -43.55351967 186.83786575 -44.90234375 186.203125 C-47.05824706 184.24062726 -48.68870111 182.15746715 -50.33984375 179.765625 C-53.63816742 175.28815062 -57.48905478 171.51136089 -61.44482422 167.62719727 C-64.80889456 164.31789086 -67.99825226 160.93768629 -71.046875 157.33203125 C-72.55056085 155.60674959 -74.08377474 153.94660993 -75.6640625 152.29296875 C-76.40257446 151.51276367 -76.40257446 151.51276367 -77.15600586 150.71679688 C-78.12455195 149.69657603 -79.10022029 148.6830502 -80.08422852 147.67773438 C-84.34825312 143.1566938 -86.62192817 138.867073 -87.27734375 132.640625 C-86.75267683 127.83117821 -85.09561868 124.73733563 -82.15234375 120.953125 C-77.20576498 117.10578596 -71.33916771 116.95343434 -65.28125 116.97265625 C-64.57765854 116.97311447 -63.87406708 116.97357269 -63.14915466 116.9740448 C-61.67095234 116.97704622 -60.19275258 116.98486855 -58.71459961 116.99731445 C-56.47433018 117.01554779 -54.23447653 117.0178238 -51.99414062 117.01757812 C-45.2076732 117.04065895 -38.62580112 117.26691193 -31.90234375 118.203125 C-32.23234375 117.543125 -32.56234375 116.883125 -32.90234375 116.203125 C-33.01155632 113.19955379 -33.05968484 110.21881955 -33.06347656 107.21459961 C-33.07092392 105.81670197 -33.07092392 105.81670197 -33.07852173 104.39056396 C-33.09317096 101.29552479 -33.09995178 98.20053696 -33.10546875 95.10546875 C-33.11122023 92.95512388 -33.11697796 90.80477904 -33.1227417 88.6544342 C-33.13326111 84.13754029 -33.13909686 79.62066421 -33.14257812 75.10375977 C-33.14804896 69.32919317 -33.17204286 63.55486402 -33.20055008 57.78037167 C-33.21922461 53.33384019 -33.22438474 48.88736518 -33.225914 44.44079781 C-33.22893282 42.31304191 -33.23693519 40.18528682 -33.25009918 38.0575695 C-33.26725166 35.07067027 -33.26525635 32.0843413 -33.25878906 29.09741211 C-33.27261124 27.79012901 -33.27261124 27.79012901 -33.28671265 26.45643616 C-33.22684721 17.58108737 -31.14990269 10.60306343 -24.90234375 4.203125 C-24.32484375 3.605 -23.74734375 3.006875 -23.15234375 2.390625 C-16.65287996 -1.03964755 -7.1898876 0.02883704 0 0 Z M-13.90234375 21.203125 C-14.2077027 24.34937803 -14.31878293 27.301556 -14.30297852 30.45117188 C-14.30995758 31.41075806 -14.31693665 32.37034424 -14.3241272 33.35900879 C-14.34419818 36.54671878 -14.34360415 39.73410723 -14.34375 42.921875 C-14.35551845 45.13709387 -14.36888136 47.35230481 -14.3837738 49.56750488 C-14.42006352 55.41625346 -14.44018428 61.26493179 -14.45532227 67.11376953 C-14.4800813 76.44728914 -14.52002404 85.78065304 -14.57722282 95.11402893 C-14.59347924 98.36768261 -14.5973243 101.62118875 -14.60023499 104.87487793 C-14.61002116 106.88989509 -14.62028603 108.90490999 -14.63110352 110.91992188 C-14.62855057 111.81590088 -14.62599762 112.71187988 -14.62336731 113.63500977 C-14.74337296 128.61412254 -14.74337296 128.61412254 -18.35490131 132.94500828 C-21.23866069 135.28959041 -24.4292283 135.32872054 -28.02832031 135.40844727 C-28.82884827 135.42839249 -29.62937622 135.44833771 -30.4541626 135.46888733 C-31.73562164 135.49395607 -31.73562164 135.49395607 -33.04296875 135.51953125 C-33.92515076 135.54031235 -34.80733276 135.56109344 -35.71624756 135.58250427 C-38.52820206 135.64777367 -41.3402482 135.70677947 -44.15234375 135.765625 C-46.06120731 135.80883173 -47.97006168 135.85244671 -49.87890625 135.89648438 C-54.55329201 136.00343187 -59.22776977 136.10476285 -63.90234375 136.203125 C-62.04861414 139.45450788 -60.14732581 142.22990371 -57.57421875 144.9453125 C-56.93871094 145.61949219 -56.30320312 146.29367187 -55.6484375 146.98828125 C-54.98972656 147.67792969 -54.33101563 148.36757813 -53.65234375 149.078125 C-53.00910156 149.76003906 -52.36585938 150.44195313 -51.703125 151.14453125 C-48.58786425 154.43529965 -45.43616236 157.67634438 -42.20703125 160.85546875 C-38.50538902 164.53410642 -35.32944068 168.54796701 -32.11328125 172.65234375 C-29.89462056 175.21203533 -27.56587104 177.12437854 -24.90234375 179.203125 C-23.74165515 180.42005843 -22.61433968 181.66993957 -21.52734375 182.953125 C-20.63789063 183.99146484 -20.63789063 183.99146484 -19.73046875 185.05078125 C-18.82554687 186.11619141 -18.82554687 186.11619141 -17.90234375 187.203125 C-16.69704553 188.60157998 -15.4887748 189.9974793 -14.27734375 191.390625 C-13.74882812 192.00292969 -13.2203125 192.61523438 -12.67578125 193.24609375 C-11.37837556 194.67781236 -10.03537721 196.06857587 -8.66796875 197.43359375 C-5.11932724 200.98724747 -1.70228303 204.65568034 1.72265625 208.328125 C3.04771323 209.74782891 4.37321717 211.16711581 5.69921875 212.5859375 C6.57054443 213.52010498 6.57054443 213.52010498 7.45947266 214.47314453 C8.27037354 215.32948486 8.27037354 215.32948486 9.09765625 216.203125 C9.58024902 216.79335449 10.0628418 217.38358398 10.56005859 217.99169922 C12.02828298 219.42547209 12.02828298 219.42547209 14.05102539 219.08032227 C21.24233524 215.99808723 26.93799867 208.39299365 32.16015625 202.765625 C32.82853516 202.05341797 33.49691406 201.34121094 34.18554688 200.60742188 C38.00231674 196.52358939 41.71796329 192.36688477 45.38452148 188.14819336 C48.21700955 184.93222751 51.15602054 181.81900946 54.09765625 178.703125 C55.41537763 177.3020956 56.73308557 175.90105356 58.05078125 174.5 C58.71916016 173.79037109 59.38753906 173.08074219 60.07617188 172.34960938 C65.18121901 166.92888783 70.27574714 161.49842805 75.359375 156.05761719 C77.02604138 154.2795276 78.70163114 152.510264 80.37890625 150.7421875 C81.3687927 149.68778449 82.35839442 148.63311406 83.34765625 147.578125 C84.1984375 146.67835938 85.04921875 145.77859375 85.92578125 144.8515625 C88.17881813 142.10415422 89.56234824 139.39298292 91.09765625 136.203125 C90.02394775 136.21883545 88.95023926 136.2345459 87.84399414 136.25073242 C83.82405226 136.30542454 79.80414263 136.33961658 75.78393555 136.36791992 C74.05080619 136.38291769 72.31771421 136.40332272 70.5847168 136.42944336 C68.079821 136.46622703 65.57543105 136.48294151 63.0703125 136.49609375 C61.9259951 136.51931953 61.9259951 136.51931953 60.75856018 136.54301453 C55.39039999 136.5446581 49.80135937 135.98773397 45.09765625 133.203125 C43.44066792 129.00906993 43.73973604 124.11872955 43.5625 119.6640625 C43.52076157 118.6371933 43.47902313 117.6103241 43.4360199 116.55233765 C43.0498652 105.88891825 42.94757715 95.22393835 42.8515625 84.5546875 C42.83896959 83.18059345 42.83896959 83.18059345 42.82612228 81.77873993 C42.74823871 73.16066772 42.67742916 64.54255587 42.62084961 55.92431641 C42.58916361 51.16332776 42.54798276 46.4025012 42.50065422 41.64164352 C42.4846518 39.84028353 42.47232211 38.03888701 42.46374702 36.23747635 C42.45166445 33.74489783 42.42756634 31.25270967 42.40063477 28.76025391 C42.40004562 28.0196875 42.39945648 27.27912109 42.39884949 26.51611328 C42.46283827 22.40703753 42.46283827 22.40703753 40.09765625 19.203125 C37.85539944 18.89708055 37.85539944 18.89708055 35.23657227 18.94433594 C33.71973595 18.93487946 33.71973595 18.93487946 32.17225647 18.92523193 C30.52851295 18.93130463 30.52851295 18.93130463 28.8515625 18.9375 C27.72950912 18.93558655 26.60745575 18.9336731 25.45140076 18.93170166 C23.07493872 18.93033872 20.69846927 18.93404271 18.32202148 18.94238281 C14.67870377 18.95307059 11.03588031 18.94249608 7.39257812 18.9296875 C5.08723849 18.93100927 2.78189917 18.93357203 0.4765625 18.9375 C-0.61724228 18.93345154 -1.71104706 18.92940308 -2.83799744 18.92523193 C-3.85237381 18.93153625 -4.86675018 18.93784058 -5.91186523 18.94433594 C-6.80518051 18.94592712 -7.69849579 18.94751831 -8.61888123 18.94915771 C-11.1809746 19.05714262 -11.1809746 19.05714262 -13.90234375 21.203125 Z " fill="#06ECFE" transform="translate(497.90234375,566.796875)"/>
<path d="M0 0 C3.40999984 2.9127082 4.75931443 4.86221368 5.6875 9.25 C4.19052262 17.41533117 -1.40153561 23.66750531 -6.5546875 29.9375 C-9.6867166 33.86004123 -12.65631589 37.89059047 -15.625 41.9375 C-16.22505859 42.75532959 -16.82511719 43.57315918 -17.44335938 44.41577148 C-18.68053012 46.10346221 -19.91717831 47.79153611 -21.15332031 49.47998047 C-24.09391059 53.49277435 -27.04724249 57.49615547 -30 61.5 C-33.51689317 66.26966038 -37.03141043 71.04098271 -40.53515625 75.8203125 C-41.71066789 77.4220729 -42.8864477 79.02363653 -44.0625 80.625 C-44.63532715 81.40520508 -45.2081543 82.18541016 -45.79833984 82.98925781 C-50.35090191 89.16819407 -55.00178797 95.26812914 -59.73852539 101.30712891 C-65.42142554 108.17251934 -65.42142554 108.17251934 -68.20703125 116.34375 C-68.07683594 117.0553125 -67.94664062 117.766875 -67.8125 118.5 C-67.68875 119.34820312 -67.565 120.19640625 -67.4375 121.0703125 C-67.2209375 122.52050781 -67.2209375 122.52050781 -67 124 C-65.11460566 141.87196718 -67.52650337 157.59932428 -79 172 C-88.38667141 182.85620901 -101.32274242 191.7768952 -116 193 C-128.26611802 193.82879176 -139.45646383 191.08830685 -150.57421875 185.98828125 C-153.02648403 184.81135156 -153.02648403 184.81135156 -156 185 C-156.4021875 184.071875 -156.4021875 184.071875 -156.8125 183.125 C-157.95556848 180.7004767 -157.95556848 180.7004767 -161 179 C-161 178.01 -161 177.02 -161 176 C-161.7528125 175.74992188 -162.505625 175.49984375 -163.28125 175.2421875 C-170.60277408 171.8970084 -174.24900554 163.24538529 -177 156.10546875 C-182.58457537 138.76274445 -180.6865963 120.89438962 -172.45800781 104.77075195 C-165.32853758 91.80937507 -153.26605355 82.93420451 -139.23046875 78.5078125 C-133.45961247 77.19395731 -128.01047948 76.88851292 -122.125 77.3125 C-121.42463623 77.35810059 -120.72427246 77.40370117 -120.00268555 77.45068359 C-116.18116962 77.73126739 -112.53126612 78.20624602 -108.8125 79.125 C-105.04531067 79.98960083 -103.58396932 80.11758183 -100 79 C-97.6935196 77.36022574 -97.6935196 77.36022574 -95.5 75.1875 C-94.19869141 73.97126953 -94.19869141 73.97126953 -92.87109375 72.73046875 C-91.92363281 71.82941406 -90.97617187 70.92835938 -90 70 C-87.86078383 67.99284253 -85.71316988 65.99487482 -83.5625 64 C-83.00868652 63.4851001 -82.45487305 62.9702002 -81.88427734 62.43969727 C-77.72564482 58.60035138 -73.39509446 55.03586941 -68.96875 51.5078125 C-66.61362034 49.51834771 -64.38182159 47.49547231 -62.15625 45.3671875 C-61.15537354 44.41078369 -61.15537354 44.41078369 -60.13427734 43.43505859 C-58.81877419 42.16814753 -57.51142872 40.89269764 -56.21337891 39.60791016 C-50.61276755 34.21046848 -50.61276755 34.21046848 -46 34 C-45.89349121 33.39551025 -45.78698242 32.79102051 -45.67724609 32.16821289 C-44.55647353 28.58004376 -41.46884658 26.70828698 -38.625 24.4375 C-37.44961663 23.47897229 -36.27510931 22.51936913 -35.1015625 21.55859375 C-34.31773193 20.92908813 -34.31773193 20.92908813 -33.51806641 20.28686523 C-31.95891066 19.00495693 -31.95891066 19.00495693 -30.49365234 17.46508789 C-27.98524437 15.00465045 -26.55504818 14 -23 14 C-23.33 12.35 -23.66 10.7 -24 9 C-23.16855469 8.86078125 -23.16855469 8.86078125 -22.3203125 8.71875 C-19.38067023 7.80815374 -17.35867613 6.3090059 -14.875 4.5 C-9.92732597 0.91770782 -6.32365898 -1.25747712 0 0 Z M-64 72 C-64.721875 72.928125 -65.44375 73.85625 -66.1875 74.8125 C-68.51769156 77.62842163 -70.86353706 79.11812224 -74 81 C-75.2375 82.485 -75.2375 82.485 -76.5 84 C-78.96295979 86.95555175 -80.76367513 88.06105646 -84 90 C-85.71984804 91.46279833 -87.40699749 92.9647581 -89.0625 94.5 C-97.19246957 102.01615061 -97.19246957 102.01615061 -101.125 101.9375 C-104.28135572 101.17386555 -106.80196622 100.2774813 -109.75 99 C-118.54239864 95.35534459 -127.93700463 94.99180238 -137 98 C-147.78758113 103.40836838 -155.71164246 110.62000061 -160 122 C-162.98209939 132.11836708 -162.74915528 142.85530724 -158.4140625 152.5546875 C-152.87163123 162.13911284 -144.78851154 168.12793743 -134.75 172.375 C-123.15832507 174.30694582 -110.97430036 173.72220607 -101 167 C-93.34721783 160.60119592 -86.84457563 153.07995369 -85 143 C-84.90689223 140.85578272 -84.87003761 138.70873209 -84.875 136.5625 C-84.87242187 135.45003906 -84.86984375 134.33757812 -84.8671875 133.19140625 C-84.98600777 130.33622508 -85.34646731 127.77492054 -86 125 C-86.33 125.99 -86.66 126.98 -87 128 C-87.66 128 -88.32 128 -89 128 C-89 126.68 -89 125.36 -89 124 C-88.34 124 -87.68 124 -87 124 C-87.22816406 123.33613281 -87.45632813 122.67226563 -87.69140625 121.98828125 C-87.97886719 121.10527344 -88.26632812 120.22226562 -88.5625 119.3125 C-88.85253906 118.44238281 -89.14257812 117.57226562 -89.44140625 116.67578125 C-90.2113825 112.98743347 -89.78952521 110.27434379 -87.79174805 107.04980469 C-87.03438354 106.12022949 -87.03438354 106.12022949 -86.26171875 105.171875 C-85.69404785 104.46208496 -85.12637695 103.75229492 -84.54150391 103.02099609 C-83.92968262 102.27156738 -83.31786133 101.52213867 -82.6875 100.75 C-75.75885676 92.07349389 -69.31140859 83.13189155 -63 74 C-63.495 73.01 -63.495 73.01 -64 72 Z " fill="#06ECFE" transform="translate(635,351)"/>
<path d="M0 0 C2.49009179 2.02319958 2.88987465 3.68430733 3.9375 6.6875 C4.0154864 10.82077896 2.74012091 13.39935222 0.91015625 17.046875 C-0.1407964 18.943008 -0.1407964 18.943008 0 21 C-0.5765332 21.08685059 -1.15306641 21.17370117 -1.74707031 21.26318359 C-4.63146819 22.20652048 -5.93988612 23.61389756 -8.046875 25.7890625 C-9.1915625 26.95501953 -9.1915625 26.95501953 -10.359375 28.14453125 C-11.14828125 28.96308594 -11.9371875 29.78164063 -12.75 30.625 C-17.75182692 35.76854535 -22.75798603 40.78387021 -28.20849609 45.45361328 C-30.69338019 47.59851051 -33.05555177 49.86692724 -35.4375 52.125 C-62.19653353 76.88780012 -111.90481424 113.71877709 -150 113 C-150 113.99 -150 114.98 -150 116 C-152.75026417 116.05404449 -155.49946203 116.09369306 -158.25 116.125 C-159.02730469 116.14175781 -159.80460938 116.15851563 -160.60546875 116.17578125 C-167.96292928 116.23866553 -167.96292928 116.23866553 -171 114 C-172.57422753 110.85154494 -172.66928343 107.40781928 -172 104 C-169.08551467 99.53809719 -166.65025995 98.12770363 -161.58203125 96.6484375 C-160.32712891 96.27203125 -159.07222656 95.895625 -157.77929688 95.5078125 C-156.45719134 95.12964819 -155.13492446 94.75204753 -153.8125 94.375 C-152.50928401 93.99121497 -151.20654346 93.60581162 -149.90429688 93.21875 C-147.39979636 92.47648618 -144.89349776 91.74025652 -142.38525391 91.01074219 C-139.48386286 90.14446792 -136.62313782 89.21493686 -133.76171875 88.2265625 C-130 87 -130 87 -127 87 C-126.505 85.515 -126.505 85.515 -126 84 C-123.8671875 83.25390625 -123.8671875 83.25390625 -120.875 82.5625 C-106.08506481 78.34147867 -91.5591926 69.76404717 -79 61 C-77.94554687 60.278125 -76.89109375 59.55625 -75.8046875 58.8125 C-67.13635202 52.80066915 -58.96193087 46.23321653 -50.83496094 39.51464844 C-49.15831178 38.13067673 -47.4757548 36.75451368 -45.7890625 35.3828125 C-43.18525237 33.26409577 -40.59128458 31.13399907 -38 29 C-37.34644531 28.47148438 -36.69289063 27.94296875 -36.01953125 27.3984375 C-31.50140956 23.66824432 -27.78722326 19.45739034 -24 15 C-22.42655418 13.15817379 -20.84297516 11.32496183 -19.25 9.5 C-18.51265625 8.6440625 -17.7753125 7.788125 -17.015625 6.90625 C-15 5 -15 5 -12 5 C-11.814375 4.0409375 -11.814375 4.0409375 -11.625 3.0625 C-11.41875 2.381875 -11.2125 1.70125 -11 1 C-7.55080937 -0.72459531 -3.77200052 -0.49139823 0 0 Z " fill="#06ECFE" transform="translate(744,691)"/>
<path d="M0 0 C1.67175797 -0.0098568 1.67175797 -0.0098568 3.37728882 -0.01991272 C7.0541796 -0.03957667 10.7310298 -0.05128909 14.40795898 -0.0612793 C15.66496046 -0.06535482 16.92196194 -0.06943035 18.21705437 -0.07362938 C24.17843622 -0.09231121 30.13980523 -0.10688865 36.10120922 -0.11524135 C42.97231534 -0.12502983 49.8431007 -0.15140618 56.71409374 -0.19174224 C62.67601159 -0.22553725 68.63785068 -0.23738543 74.59986687 -0.24144554 C77.13285444 -0.24632366 79.66583827 -0.25797223 82.19876289 -0.27648354 C85.73693836 -0.30074741 89.27426737 -0.29993359 92.8125 -0.29296875 C93.86043228 -0.30577881 94.90836456 -0.31858887 95.98805237 -0.33178711 C103.09000014 -0.28072779 103.09000014 -0.28072779 106.96836853 2.08137512 C109.91996623 5.38347821 110.17480176 7.76545909 110.13452148 12.2043457 C109.84155273 14.17700195 109.84155273 14.17700195 107.96655273 16.61450195 C104.83520335 18.91696473 103.14308128 19.30325331 99.30921936 19.31503296 C98.35473907 19.3204863 97.40025879 19.32593964 96.41685486 19.33155823 C95.36599197 19.33260056 94.31512909 19.33364288 93.23242188 19.3347168 C91.5759967 19.34233788 91.5759967 19.34233788 89.8861084 19.35011292 C87.4803402 19.36083625 85.07456191 19.36944868 82.66877937 19.37623215 C78.85558468 19.38800467 75.04250408 19.4074563 71.22935486 19.42935181 C60.3845476 19.49100263 49.53975745 19.5451423 38.69482422 19.57836914 C32.06586862 19.59876817 25.43710091 19.63473105 18.80825615 19.67912674 C16.28585667 19.69324956 13.76342097 19.70200073 11.24098396 19.70518112 C7.69885174 19.71011719 4.15725656 19.733348 0.61523438 19.76049805 C-0.41741043 19.75749191 -1.45005524 19.75448578 -2.51399231 19.75138855 C-9.22289546 19.82734009 -15.96024689 20.40536393 -22.15844727 23.17700195 C-22.65344727 24.66200195 -22.65344727 24.66200195 -23.15844727 26.17700195 C-25.06315734 27.14712871 -26.97262575 28.10934824 -28.90795898 29.0168457 C-32.67341252 30.95798643 -35.89616448 33.57135259 -39.22094727 36.17700195 C-51.61195956 45.83171548 -51.61195956 45.83171548 -57.84594727 46.67700195 C-61.15844727 46.17700195 -61.15844727 46.17700195 -63.53344727 44.55200195 C-65.55782531 41.59329558 -66.08665944 39.7663933 -66.15844727 36.17700195 C-64.19036067 31.17590518 -61.74308909 28.62172784 -57.47094727 25.42700195 C-56.90859375 25.00580078 -56.34624023 24.58459961 -55.7668457 24.15063477 C-50.00160808 19.91232111 -43.93807379 16.15799922 -37.83032227 12.4387207 C-34.8685602 10.63319077 -32.00311947 8.72586789 -29.15844727 6.73950195 C-20.06888283 0.61053851 -10.658133 0.02740078 0 0 Z " fill="#06ECFE" transform="translate(320.158447265625,622.822998046875)"/>
<path d="M0 0 C1.36644653 -0.00422974 1.36644653 -0.00422974 2.76049805 -0.00854492 C3.76303619 -0.00652069 4.76557434 -0.00449646 5.79849243 -0.00241089 C6.85240173 -0.00416321 7.90631104 -0.00591553 8.99215698 -0.00772095 C12.4948387 -0.01214027 15.99747031 -0.00919908 19.50015259 -0.00582886 C21.93477386 -0.00650238 24.36939507 -0.00747281 26.80401611 -0.00872803 C31.92034543 -0.01020552 37.03665733 -0.00805066 42.15298462 -0.00338745 C48.68720595 0.0022797 55.22138593 -0.00094961 61.7556057 -0.00695992 C66.7915884 -0.01058998 71.82756146 -0.00941521 76.86354446 -0.00683212 C79.2707075 -0.00616804 81.67787143 -0.00697305 84.08503342 -0.00931168 C87.4687096 -0.01187501 90.85232102 -0.00794486 94.23599243 -0.00241089 C95.21828827 -0.00443512 96.20058411 -0.00645935 97.21264648 -0.00854492 C104.07085989 0.01204678 110.838558 0.46935278 117.66421509 1.12698364 C117.66421509 1.78698364 117.66421509 2.44698364 117.66421509 3.12698364 C118.44796509 3.16823364 119.23171509 3.20948364 120.03921509 3.25198364 C130.5850318 5.79752561 139.94610776 14.43723194 148.64907837 20.68460083 C150.45868467 21.97987028 152.27605839 23.26294809 154.09780884 24.54104614 C155.0684729 25.22940552 156.03913696 25.91776489 157.03921509 26.62698364 C157.87194946 27.21479614 158.70468384 27.80260864 159.56265259 28.40823364 C163.01816173 31.2343006 164.53212702 33.08914886 165.10171509 37.56448364 C164.58966132 41.73406435 163.73860487 43.3018687 160.66421509 46.12698364 C158.40640259 46.98635864 158.40640259 46.98635864 155.66421509 47.12698364 C152.74624634 45.71292114 152.74624634 45.71292114 149.47671509 43.50198364 C148.88157104 43.10535522 148.286427 42.70872681 147.67324829 42.30007935 C144.07538969 39.87372366 140.56309135 37.33582379 137.06265259 34.77151489 C135.88932373 33.91324097 135.88932373 33.91324097 134.69229126 33.03762817 C133.16971223 31.91669745 131.65382263 30.7866035 130.14590454 29.64602661 C122.32734888 23.84382133 114.60710619 20.02767377 104.72401428 19.98222351 C103.75529388 19.97532501 102.78657349 19.96842651 101.78849792 19.96131897 C100.21188637 19.95739891 100.21188637 19.95739891 98.60342407 19.95339966 C97.4874585 19.94671265 96.37149292 19.94002563 95.22171021 19.93313599 C92.80124941 19.91910008 90.3807755 19.9072014 87.96029472 19.89718819 C84.13198423 19.88076841 80.30377153 19.8575319 76.47550964 19.83229065 C65.59192631 19.76152759 54.70830809 19.70125032 43.82461548 19.650177 C37.16633099 19.61884974 30.50815592 19.5771674 23.84996223 19.52998161 C21.31060904 19.51394414 18.77122955 19.50163068 16.23184013 19.49307442 C12.68631209 19.4809518 9.14105419 19.45681623 5.59561157 19.42996216 C4.54251297 19.42937302 3.48941437 19.42878387 2.40440369 19.42817688 C1.43850311 19.41845856 0.47260254 19.40874023 -0.52256775 19.39872742 C-1.77937017 19.39237951 -1.77937017 19.39237951 -3.06156254 19.38590336 C-5.60231425 19.09663934 -7.19363967 18.5158996 -9.33578491 17.12698364 C-11.3855518 12.83223397 -11.72238786 9.68296477 -10.33578491 5.12698364 C-7.0949331 1.25887019 -4.96872513 0.00236011 0 0 Z " fill="#06ECFE" transform="translate(604.3357849121094,622.8730163574219)"/>
<path d="M0 0 C2.51208954 1.21999297 4.63482527 2.41172878 6.9375 3.9375 C8.26839786 4.77394152 9.60046666 5.60852228 10.93359375 6.44140625 C11.94848877 7.08360107 11.94848877 7.08360107 12.98388672 7.73876953 C36.93189526 22.72004976 63.33242027 34.30000196 90.70068359 41.32958984 C95.08679242 42.5058489 98.39262107 44.24714262 102 47 C103.53214888 50.06429776 103.22938548 52.6165642 103 56 C101.8671875 58.69921875 101.8671875 58.69921875 100 61 C92.41947829 62.59589931 85.03271661 60.86076608 78 58 C78 58.66 78 59.32 78 60 C77.34 60 76.68 60 76 60 C76 59.01 76 58.02 76 57 C70.3443706 55.65155132 64.7809725 54.63065155 59 54 C59 53.01 59 52.02 59 51 C58.195625 50.9175 57.39125 50.835 56.5625 50.75 C53.46089517 50.09703056 51.31719974 49.28651443 48.5 47.9375 C44.83544081 46.21993165 42.10489712 45.57898491 38 46 C37.67 45.01 37.34 44.02 37 43 C34.58586496 41.5994037 34.58586496 41.5994037 31.6875 40.4375 C24.46702525 37.34301082 17.7235748 33.65723788 10.875 29.8125 C9.87984375 29.26013672 8.8846875 28.70777344 7.859375 28.13867188 C-9.35871716 18.46192426 -9.35871716 18.46192426 -13 13 C-13.46797583 8.78821757 -13.46565795 6.71400886 -11.125 3.125 C-7.52998493 -0.47001507 -5.02282196 -0.40697737 0 0 Z " fill="#06ECFE" transform="translate(349,746)"/>
<path d="M0 0 C1.65 0 3.3 0 5 0 C5 0.66 5 1.32 5 2 C3.35 1.67 1.7 1.34 0 1 C0 0.67 0 0.34 0 0 Z " fill="#06ECFE" transform="translate(859,198)"/>
<path d="M0 0 C1.32 0.33 2.64 0.66 4 1 C2.68 1.33 1.36 1.66 0 2 C0 1.34 0 0.68 0 0 Z " fill="#06ECFE" transform="translate(660,238)"/>
<path d="M0 0 C0.33 0 0.66 0 1 0 C1 1.98 1 3.96 1 6 C0.67 6 0.34 6 0 6 C0 4.02 0 2.04 0 0 Z " fill="#06ECFE" transform="translate(559,600)"/>
<path d="M0 0 C0.33 0 0.66 0 1 0 C1 1.65 1 3.3 1 5 C0.67 5 0.34 5 0 5 C0 3.35 0 1.7 0 0 Z " fill="#06ECFE" transform="translate(559,593)"/>
<path d="M0 0 C0.66 0 1.32 0 2 0 C2 0.66 2 1.32 2 2 C1.34 2 0.68 2 0 2 C0 1.34 0 0.68 0 0 Z " fill="#06ECFE" transform="translate(537,588)"/>
<path d="M0 0 C0.66 0 1.32 0 2 0 C2 0.66 2 1.32 2 2 C1.34 2 0.68 2 0 2 C0 1.34 0 0.68 0 0 Z " fill="#06ECFE" transform="translate(499,520)"/>
<path d="M0 0 C0.66 0 1.32 0 2 0 C2 0.66 2 1.32 2 2 C1.34 2 0.68 2 0 2 C0 1.34 0 0.68 0 0 Z " fill="#06ECFE" transform="translate(237,382)"/>
<path d="M0 0 C0.66 0 1.32 0 2 0 C2 0.66 2 1.32 2 2 C1.34 2 0.68 2 0 2 C0 1.34 0 0.68 0 0 Z " fill="#06ECFE" transform="translate(657,235)"/>
<path d="M0 0 C0.66 0.66 1.32 1.32 2 2 C1.34 2 0.68 2 0 2 C0 1.34 0 0.68 0 0 Z " fill="#06ECFE" transform="translate(571,720)"/>
<path d="M0 0 C0.66 0.66 1.32 1.32 2 2 C1.34 2 0.68 2 0 2 C0 1.34 0 0.68 0 0 Z " fill="#06ECFE" transform="translate(752,318)"/>
<path d="M0 0 C0.66 0.66 1.32 1.32 2 2 C1.34 2 0.68 2 0 2 C0 1.34 0 0.68 0 0 Z " fill="#06ECFE" transform="translate(740,302)"/>
<path d="M0 0 C0.66 0.66 1.32 1.32 2 2 C1.34 2 0.68 2 0 2 C0 1.34 0 0.68 0 0 Z " fill="#06ECFE" transform="translate(709,270)"/>
<path d="M0 0 C0.66 0.66 1.32 1.32 2 2 C1.34 2 0.68 2 0 2 C0 1.34 0 0.68 0 0 Z " fill="#06ECFE" transform="translate(616,214)"/>
</svg>
